/* XPM */
static char *_c8fb776cf19444aa6d3fdc062359d9f[] = {
/* columns rows colors chars-per-pixel */
"50 50 20 1 ",
"  c black",
". c gray8",
"X c gray13",
"o c #010101",
"O c #868786",
"+ c #DFDFDF",
"@ c gray68",
"# c gray60",
"$ c white",
"% c #F4F4F4",
"& c #E6E6E6",
"* c #CECECE",
"= c #2D2D2D",
"- c #5A5A5A",
"; c #6C6C6C",
": c #282828",
"> c #373737",
", c #505050",
"< c gray3",
"1 c #3E3E3E",
/* pixels */
"                                                  ",
"                                                  ",
"                                                  ",
"                                                  ",
"            .XXXXXXXXXXXXXXXXXXXXXXXXXo           ",
"            O++++++++++++++++++++++++@.           ",
"            #$%&&&&&&&&&&&&&&&&&&&&&$*.           ",
"           o#$O====================-%*.           ",
"           o#$;.;OOOOOOOOOOOOOOOOO:>%*.           ",
"           o#$;:+$$$$$$$$$$$$$$$$$,>%*.           ",
"           o#$;:+$$$$$$$$$$$$$$$$%,>%*.           ",
"           o#$;:+$$$$$$$$$$$$$$$$%,>%*.           ",
"           o#$;:+$$$$$$$$$$$$$$$$%,>%*.           ",
"           o#$;:+$$$$$$$$$$$$$$$$%,>%*.           ",
"           o#$;:+$$$$$$$@O%$$$$$$%,>%*.           ",
"           o#$;:+$$$$$$$;,&$$$$$$%,>%*.           ",
"           o#$;:+$$$$$$$%&$$$$$$$%,>%*.           ",
"           o#$;:+$$$$$$$$$$$$$$$$%,>%*.           ",
"           o#$;:+$$$$$$$$$$$$$$$$%,>%*.           ",
"           o#$;:+$$$$$$$$$$$$$$+*%,>%*.           ",
"           o#$;:+$$$$$$$$$$$$$$;,&,>%*.           ",
"           o#$;:+$$$$$$$$$$$$$%->&,>%*.           ",
"           o#$;:+$$$$$$$$$$$$$$->&,>%*.           ",
"           o#$;:+$$$$$$$$$$$$$$->&,>%*.           ",
"           o#$;:+$$$$$$$$$$$$$$->&,>%*.           ",
"           o#$;:+$$$$$$$$$$$$$$;,&,>%*.           ",
"           o#$;:+$$$$$$$$$$$$$$&+%,>%*.           ",
"           o#$;:+$$$$$$$$$$$$$$$$%,>%*.           ",
"           o#$;:+$$$$$$$$$$$$$$$$%,>%*.           ",
"           o#$;:+$$$$$$$$$$$$$$$$%,>%*.           ",
"           o#$;:+$$$$$$$$$$$$$$$$%,>%*.           ",
"           o#$;:+$$$$$$$$$$$$$$$$%,>%*.           ",
"           o#$;:+$$$$$$$$$$$$$$$$%,>%*.           ",
"           o#$;:+$$$$$$$$$$$$$$$$%,>%*.           ",
"           o#$;:+$$$$$$$$$$$$$$$$%,>%*.           ",
"           o#$;:+$$$$$$$$$$$$$$$$%,>%*.           ",
"           o#$;:+$$$$$$$$$$$$$$$$%,>%*.           ",
"           o#$;:+$$$$$$$$$$$$$$$$%,>%*.           ",
"           o#$;:+$$$$$$$$$$$$$$$$%,>%*.           ",
"           o#$;:+$$$$$$$$$$$$$$$$%,>%*.           ",
"           o#$;:+$$$$$$$$$$$$$$$$%,>%*.           ",
"           o#$;:*%%%%%%%%%%%%%%%%&,>%*.           ",
"           o#$;<>11111111111111111.>%*.           ",
"           o#$@-<                 ,#%*.           ",
"           o#$$+X                <@$$*.           ",
"           o-##O.                <;##O<           ",
"            oooo                  oooo            ",
"                                                  ",
"                                                  ",
"                                                  "
};
