/* XPM */
static char *_285defd7b264d7ebdda5009f2e75f5f[] = {
/* columns rows colors chars-per-pixel */
"50 50 149 2 ",
"   c #010101",
".  c #080607",
"X  c #090806",
"o  c #090708",
"O  c #0A0A0A",
"+  c #110E0F",
"@  c #110F10",
"#  c #141313",
"$  c #191716",
"%  c #181816",
"&  c #1D1B1B",
"*  c #211D1C",
"=  c #21201E",
"-  c #262524",
";  c #282725",
":  c #2C2B2B",
">  c #302F2D",
",  c #31312F",
"<  c #312F30",
"1  c #353433",
"2  c #383635",
"3  c #393836",
"4  c #393738",
"5  c #3C3A3B",
"6  c #413E3F",
"7  c #41403E",
"8  c #423F40",
"9  c #434242",
"0  c #484745",
"q  c #4D4B4C",
"w  c #545353",
"e  c #585453",
"r  c #5A5857",
"t  c #5E5A59",
"y  c #615D5D",
"u  c #656462",
"i  c #686667",
"p  c #696768",
"a  c #6C6B69",
"s  c #757473",
"d  c #797977",
"f  c #7C7B7C",
"g  c #807E7F",
"h  c #82817F",
"j  c #817F80",
"k  c #848283",
"l  c #888687",
"z  c #898886",
"x  c #8C8B8B",
"c  c #908E8F",
"v  c #94908F",
"b  c #918F90",
"n  c #939292",
"m  c #999997",
"M  c #9D9B9B",
"N  c #A1A09E",
"B  c #A6A4A5",
"V  c #A9A8A6",
"C  c #ADABAC",
"Z  c #B2B1AF",
"A  c #B4B2B2",
"S  c #B9B9B7",
"D  c #B9B7B8",
"F  c #BCBBBB",
"G  c #C0BEBE",
"H  c #C1C0BE",
"J  c #C5C3C3",
"K  c #C9C7C8",
"L  c #CCCACB",
"P  c #D2D1CF",
"I  c #D1CFD0",
"U  c #D5D4D3",
"Y  c #D8D7D5",
"T  c #DAD9D7",
"R  c #DDDBDB",
"E  c #E0DFDE",
"W  c #E1E0DE",
"Q  c #E4E3E3",
"!  c #EAE7E6",
"~  c #E9E9E7",
"^  c #E9E7E8",
"/  c #EDEBEB",
"(  c #F1EEEE",
")  c #F3F0EF",
"_  c #F2EFF0",
"`  c #F7F3F2",
"'  c #F5F2F1",
"]  c #F5F4F2",
"[  c #F5F5F3",
"{  c #F6F5F3",
"}  c #F5F3F4",
"|  c #F7F3F4",
" . c gray96",
".. c #F6F4F5",
"X. c #F7F6F4",
"o. c #F7F5F6",
"O. c #F7F7F7",
"+. c #F5F3F3",
"@. c #F8F4F3",
"#. c #F9F5F4",
"$. c #F8F4F5",
"%. c #F8F7F5",
"&. c #FAF6F5",
"*. c #F9F5F6",
"=. c #F8F6F7",
"-. c #FBF7F6",
";. c #FAF6F7",
":. c #FAF6F5",
">. c #F9F8F6",
",. c #F8F8F6",
"<. c #FAF9F7",
"1. c #FCF8F7",
"2. c #FBF8F7",
"3. c #F9F7F8",
"4. c #FBF7F8",
"5. c #FAF7F8",
"6. c #FAF8F9",
"7. c #FAFAF8",
"8. c #FBFAF8",
"9. c #FBF9FA",
"0. c #FBFBFB",
"q. c #FDF9F8",
"w. c #FCF8F9",
"e. c #FCFBF9",
"r. c #FEFAF9",
"t. c #FDF9FA",
"y. c #FCFAFB",
"u. c #FFFBFA",
"i. c #FEFAFB",
"p. c #FCFCFA",
"a. c #FDFCFA",
"s. c #FDFDFB",
"d. c #FFFCFB",
"f. c #FEFDFB",
"g. c #FDFBFC",
"h. c #FFFBFC",
"j. c #FFFDFC",
"k. c #FEFCFD",
"l. c #FFFCFD",
"z. c #FEFEFC",
"x. c #FFFEFC",
"c. c #FFFEFD",
"v. c #FFFFFD",
"b. c #FFFDFE",
"n. c #FEFEFE",
"m. c #FFFEFF",
"M. c white",
"N. c gray99",
"B. c #FEFCFB",
/* pixels */
"                                                                                                    ",
"                                                                                                    ",
"                                        O                                                           ",
"                                    O                               .                               ",
"                                      O                   .                                         ",
"                                  O           O                                                     ",
"                                    f C C A q   O       n C A 4 O   o .   . .                       ",
"                                9 Q =.M.M.M./ :     O C 9.M.9./ 5                                   ",
"                                g M.=. . . .M.p     x g. .3._ M.Q q :       .                       ",
"                              k M. .9. .=.e.e._ $   c M.} =.M.3.' M.x     o                         ",
"                  O         f M.{  .<.<.9.<.d.~ &   x M.' e.=.<.3.' R 4                             ",
"                            U M.<. .=.e.e.{ 9./ #   n M. .9.<.<.=.4.M./ <                           ",
"                      O   c M. .=.=.d.=.=.1.e.!   r d.-.=.=.e.=.e.4.' e.6                           ",
"                          n  . .e.d.' e.e.) M./   t M.' e.e.d.=.=.M.=.M.4   O                       ",
"                  O       x M./ =.=.e.=.=.-.d.!   y -.) e.d.' e.=.e.' M.8 o                         ",
"                O         n M.=.e.1.=.1.1.=.e./   e M.` -.=.e.e.e.e.e.M.2   .                       ",
"                    X   X N e.e.e.@.M.` d.9.d.{ $   m M.@.@.e.e.9. .3.g.9 .                         ",
"              O e w r 9   e ) ' @.=.e.-.=.<.d.C @   z d.) M.@.=.=.M.g.I -   # y w q                 ",
"            O V e.M.M.Q x ; S M.=.1.=.d.' <.M.,     x M.=.<.@.e.9.=.M.i   O A e.M.e.i               ",
"        O   B M.=.' ) { M.s 1 ! d.=.' =.e.M.M.3     x M.) { ' )  ./ M.p   G e.} ' M.J     O         ",
"            Q M. .M.{ <.<./ * 3 T { M.<.9.Q s       # C d.M.d.M.M.M.M   B =.e.e.' M.F O             ",
"      .   1 /  . .3.M.<.{ M.s     u H G x     3 2     O V A Z Z S c   - R M._ g.M. .M.d   O         ",
"    .     F 9.} e.=.=.=.M.@.=.*           , s ' / d :       .     .   b M._ =.M.} ' M.x   O         ",
"  .       C M. .e.3.e.e.) M./ $   .   & n L M.' <.9.U m %   O   .   5 E g.9.M.=.g.' M.k             ",
"          B e.' e.=.M.=.( M.! $   X   S M.M.) d.9.) d.M.F O         j M.=.3.e.=.g.3.M.l             ",
"      .   # / M.e.e.e.=.M.' / &     - ~ e.<.<.=. .M.) <.d.S %   O 2 '  . .M.} e.3.3.e.k             ",
"    .       n 3.=.e.e.<.<.M.-.*   = E M.=.<.' =.=.1.<.d.) M.h     9 M.' =. .M.=.3.( M.x .           ",
"    . O   . $ M.3. .' { { M.v   - R <.) =.{ M.` e.' =.d.{ d.P - O @ B M.( 9.=.3.( M.R 1             ",
"              s M.9.M.d.9.d.> # Y M.@.1.e.=.` e.=.d.e.1.<.1.M.T :   w e.e.e.' M.M.3.C               ",
"        O       s T J P W a   U M.) ' e.` e.e.-.e.-.1.=.=.=.{ M. .D # j Q M.M./ I J &               ",
"                            9 ( M.<.e.=.e.=.M.=.-.e.-.` M.1. .{ e.M.F O . n A w .                   ",
"                      X   9 { M.=.e.e.=.=.e.-.-.-.-.=.-.=.@.e.<.} e.M.J O                           ",
"                    O   6 } M.=.1.1.1.1.1.1.1.1.=.=.=.=.=.=.=.=.1.e.' M.G +                         ",
"                        k e.' g.1.1.1.1.1.1.1.1.1.1.1.1.1.1.1.1.=.=.3.=.3.*   .                     ",
"                  o   5 M.e.=.3.1.1.1.1.1.1.1.1.1.1.1.1.1.1.1.1.e.=.4.M./ %                         ",
"                  O . 4 M.e.4.e.1.1.1.1.1.1.1.1.1.1.1.1.1.1.1.1.-.e.e.M./ &   .                     ",
"                      9 e. .$.M.1.1.1.1.1.1.1.1.1.1.1.1.1.1.1.1.=.e.=.e./ &                         ",
"                    . 4 g.g.=.3.1.1.1.1.1.1.1.1.e.e.e.e.e.e.e.e.e.=.=.M./ $                         ",
"                      < R ' 9.=.<.<.<.<.<.<.<.<.<.<.<.<.<.<.<.<.<.e.9.}  .& . .                     ",
"                    .   p M./ 9.<.<.<.<.<.<.<.<.=.=.=.=.=.=.=.=. .d.} g.A O                         ",
"                    .   & L M.3.<.{ ' =. .{ e.d.M.M.M.<.M.<.d.M.d.d.M.C                             ",
"                          & q R <.M.d.M.M.M.M.Q 0 7 2 9 R / / / <.H 5 @                             ",
"                              O e L K K K K K 8 o       # & & % & %   O                             ",
"                    .                                 o   .         O     O                         ",
"                  O                                                     O                           ",
"                                                                                                    ",
"                                                                          O                         ",
"                O                                                       O                           ",
"                                                                                                    ",
"                                                                                                    "
};
