/* XPM */
static char *_08b808dba3c45a896c363348c28f084[] = {
/* columns rows colors chars-per-pixel */
"40 40 26 1 ",
"  c black",
". c white",
"X c #060606",
"o c gray9",
"O c #0C0C0C",
"+ c #E7E7E7",
"@ c #3A3A3A",
"# c gray74",
"$ c gray70",
"% c #FBFBFB",
"& c #DADADA",
"* c #505050",
"= c #585858",
"- c gray18",
"; c gray67",
": c gray40",
"> c #464646",
", c #929292",
"< c gray80",
"1 c #C6C6C6",
"2 c gray52",
"3 c LightGray",
"4 c #222222",
"5 c gray95",
"6 c gray64",
"7 c #747474",
/* pixels */
"                                        ",
"       XoooooooX                        ",
"      4:;$$$$$$7-X                      ",
"    X-;+.......5#>                      ",
"   X=#%..........1>                     ",
"   -1.............1>                    ",
"  -;%.............%1@                   ",
"  :+...............%2O                  ",
" 4#.................3-                  ",
"X:+................%+*                  ",
"O,.3#5..............%,O                 ",
"O,.,>+...............$o                 ",
"O,.1*#...............$o                 ",
"O2.5*:5..............3>                 ",
" >&.6@;%.............%7X                ",
" 4#.&>@&.............%6o                ",
" O25.1=2+.............+*                ",
"  @1..17#&%...........%;o               ",
"  X*3.%+377,+..........+=X              ",
"   X=&..%6@@6%..........3=X             ",
"    X*;+%%+&+............#-             ",
"      o=;&&%.............57X            ",
"        4@@,$+...........52O            ",
"           O4*6+.........57O            ",
"              o*#%......+&&:O           ",
"                @,&...%+:@6&:O          ",
"                 O=1&+52O -;&:O         ",
"                  O4-=<#@  4;&:O        ",
"                     X*<#@  -2;:4oo     ",
"                      X*3#@  O*;##;>    ",
"                       X*<#@  X*,,<1>   ",
"                        X=3#-   OO>&2   ",
"                         X=36O X@@412   ",
"                          X=;4 X,6><2   ",
"                           o$:  >11<=   ",
"                           412  -<$*O   ",
"                           o$<*-,$-     ",
"                           X@61<$:O     ",
"                            Xo*:-X      ",
"                                        "
};
