/* XPM */
static char *_82d88d96df846eac5009a6a4e9fa0a3OERjkXVXLPfNpvYh[] = {
/* columns rows colors chars-per-pixel */
"50 50 256 2 ",
"   c black",
".  c #010101",
"X  c #020202",
"o  c gray1",
"O  c #040404",
"+  c gray2",
"@  c #060606",
"#  c #070707",
"$  c gray3",
"%  c #090909",
"&  c gray4",
"*  c #0B0B0B",
"=  c #0C0C0C",
"-  c gray5",
";  c #0E0E0E",
":  c gray6",
">  c #101010",
",  c #111111",
"<  c gray7",
"1  c #131313",
"2  c gray8",
"3  c #151515",
"4  c #161616",
"5  c gray9",
"6  c #181818",
"7  c #191919",
"8  c gray10",
"9  c #1B1B1B",
"0  c gray11",
"q  c #1D1D1D",
"w  c #1E1E1E",
"e  c gray12",
"r  c #202020",
"t  c gray13",
"y  c #222222",
"u  c #232323",
"i  c gray14",
"p  c #252525",
"a  c gray15",
"s  c #272727",
"d  c #282828",
"f  c gray16",
"g  c #2A2A2A",
"h  c gray17",
"j  c #2C2C2C",
"k  c #2D2D2D",
"l  c gray18",
"z  c #2F2F2F",
"x  c gray19",
"c  c #313131",
"v  c #323232",
"b  c gray20",
"n  c #343434",
"m  c #353535",
"M  c gray21",
"N  c #373737",
"B  c gray22",
"V  c #393939",
"C  c #3A3A3A",
"Z  c gray23",
"A  c #3C3C3C",
"S  c gray24",
"D  c #3E3E3E",
"F  c #3F3F3F",
"G  c gray25",
"H  c #414141",
"J  c gray26",
"K  c #434343",
"L  c #444444",
"P  c gray27",
"I  c #464646",
"U  c gray28",
"Y  c #484848",
"T  c #494949",
"R  c gray29",
"E  c #4B4B4B",
"W  c #4C4C4C",
"Q  c gray30",
"!  c #4E4E4E",
"~  c gray31",
"^  c #505050",
"/  c #515151",
"(  c gray32",
")  c #535353",
"_  c gray33",
"`  c #555555",
"'  c #565656",
"]  c gray34",
"[  c #585858",
"{  c gray35",
"}  c #5A5A5A",
"|  c #5B5B5B",
" . c gray36",
".. c #5D5D5D",
"X. c gray37",
"o. c #5F5F5F",
"O. c #606060",
"+. c gray38",
"@. c #626262",
"#. c gray39",
"$. c #646464",
"%. c #656565",
"&. c gray40",
"*. c #676767",
"=. c #686868",
"-. c DimGray",
";. c #6A6A6A",
":. c gray42",
">. c #6C6C6C",
",. c #6D6D6D",
"<. c gray43",
"1. c #6F6F6F",
"2. c gray44",
"3. c #717171",
"4. c #727272",
"5. c gray45",
"6. c #747474",
"7. c gray46",
"8. c #767676",
"9. c #777777",
"0. c gray47",
"q. c #797979",
"w. c gray48",
"e. c #7B7B7B",
"r. c #7C7C7C",
"t. c gray49",
"y. c #7E7E7E",
"u. c gray50",
"i. c #808080",
"p. c #818181",
"a. c gray51",
"s. c #838383",
"d. c #848484",
"f. c gray52",
"g. c #868686",
"h. c gray53",
"j. c #888888",
"k. c #898989",
"l. c gray54",
"z. c #8B8B8B",
"x. c gray55",
"c. c #8D8D8D",
"v. c #8E8E8E",
"b. c gray56",
"n. c #909090",
"m. c gray57",
"M. c #929292",
"N. c #939393",
"B. c gray58",
"V. c #959595",
"C. c gray59",
"Z. c #979797",
"A. c #989898",
"S. c gray60",
"D. c #9A9A9A",
"F. c #9B9B9B",
"G. c gray61",
"H. c #9D9D9D",
"J. c gray62",
"K. c #9F9F9F",
"L. c #A0A0A0",
"P. c gray63",
"I. c #A2A2A2",
"U. c gray64",
"Y. c #A4A4A4",
"T. c #A5A5A5",
"R. c gray65",
"E. c #A7A7A7",
"W. c gray66",
"Q. c #A9A9A9",
"!. c #AAAAAA",
"~. c gray67",
"^. c #ACACAC",
"/. c gray68",
"(. c #AEAEAE",
"). c #AFAFAF",
"_. c gray69",
"`. c #B1B1B1",
"'. c #B2B2B2",
"]. c gray70",
"[. c #B4B4B4",
"{. c gray71",
"}. c #B6B6B6",
"|. c #B7B7B7",
" X c gray72",
".X c #B9B9B9",
"XX c gray73",
"oX c #BBBBBB",
"OX c #BCBCBC",
"+X c gray74",
"@X c gray",
"#X c gray75",
"$X c #C0C0C0",
"%X c #C1C1C1",
"&X c gray76",
"*X c #C3C3C3",
"=X c gray77",
"-X c #C5C5C5",
";X c #C6C6C6",
":X c gray78",
">X c #C8C8C8",
",X c gray79",
"<X c #CACACA",
"1X c #CBCBCB",
"2X c gray80",
"3X c #CDCDCD",
"4X c #CECECE",
"5X c gray81",
"6X c #D0D0D0",
"7X c gray82",
"8X c #D2D2D2",
"9X c LightGray",
"0X c gray83",
"qX c #D5D5D5",
"wX c gray84",
"eX c #D7D7D7",
"rX c #D8D8D8",
"tX c gray85",
"yX c #DADADA",
"uX c gray86",
"iX c gainsboro",
"pX c #DDDDDD",
"aX c gray87",
"sX c #DFDFDF",
"dX c gray88",
"fX c #E1E1E1",
"gX c #E2E2E2",
"hX c gray89",
"jX c #E4E4E4",
"kX c gray90",
"lX c #E6E6E6",
"zX c #E7E7E7",
"xX c gray91",
"cX c #E9E9E9",
"vX c #EAEAEA",
"bX c gray92",
"nX c #ECECEC",
"mX c gray93",
"MX c #EEEEEE",
"NX c #EFEFEF",
"BX c gray94",
"VX c #F1F1F1",
"CX c gray95",
"ZX c #F3F3F3",
"AX c #F4F4F4",
"SX c gray96",
"DX c #F6F6F6",
"FX c gray97",
"GX c #F8F8F8",
"HX c #F9F9F9",
"JX c gray98",
"KX c #FBFBFB",
"LX c gray99",
"PX c #FDFDFD",
"IX c #FEFEFE",
"UX c white",
/* pixels */
". . . . . . . . . . . . . . . . . . . . . . . . .       o O X   X # .   ; @   :   O . . +     : . . ",
". . . . . . . . . . . . . . . . . . . . . . . . X       o O .     o =     @   % + $ O o % +   . . . ",
". . . . . . . . . . . . . . . . . . . . . . . . o .     X X .   . +   w q   4 @ o o     O # o   . . ",
". . . . . . . . . . . . . . . . . . . . . . . . O X . . . . . . o   L ).).} 9   o X + X   o $ o . . ",
". . . . . . . . . . . . . . . . . . . . . . . . o o X .   . X O   ( 1Xc.i.<X&.  @ . - >     # X . . ",
". . . . . . . . . . . . . . . . . . . . . . . . X X X .   . O # J `.b.%   9.&X3.<     > o   $ X . . ",
". . . . . . . . . . . . . . . . . . . . . . . .   . X .   . @ * Y.s.= 6 ,   w.@XX.<   +   X = X . . ",
". . . . . . . . . . . . . . . . . . . . . . . .   . X .   X $ - ].J 7   @ = O 5.>X! + o   X &   . . ",
". . . . . . . . . . . . . . . .     + 1   3   ; + # % = : < 3 4 P.T.c X o #   % 6.8XK   2 %   & . . ",
". . . . . . . . . . . . . . . . O X     , O p =.m.V.F.U.^.[.XX+X$X<X/.n   y X > u { 1X!   3 O . . . ",
". . . . . . . . . . . . . . . . O . r 5   s S.'.m.x.s.9.;.X.` ^ R ] D.|.v   $     d F.B.r # =   . . ",
". . . . . . . . . . . . . . . . #     & 1 W.W.Y         . o O O     f oXb.0 % , . - 0 -X_   + & . . ",
". . . . . . . . . . . . . . . . . ,   @ y.=XN   $ # + o         o + @ C K.T.>       { -Xd #   : . . ",
". . . . . . . . . . . . . . . . 2   8 a Q.^   4     X o + # $ %   *   o I oXl.6 < :.OX@.  =   + . . ",
". . . . . . . . . . . . . . . . s   < G `.4 & + o o X .         ; *   %   u.BXl.&.XXt.+ O @ $   . . ",
". . . . . . . . . . . . . . . .   ^ ^ y.rXs 1   . . X O + @ # $   * 3 . 2 h.H.H.'.=.- o   - . X . . ",
". . . . . . . . %   *   q - @ * 1.0X_.%XtX<.e   ;   $ @   + 5     # X . + b.u.  X X . .         . . ",
". . . . . . . . o ; s #   .   _ :X:.9   <.,X<.<     o % = # O %   # X . @ M.e.. X X . .         . . ",
". . . . . . . . X     # % 7 X U.m.    i   o.+X2.# . O % O X + +   #   X $ A.5.. . . . .         . . ",
". . . . . . . . ; q 2 #   X = ].E * . t     :.&X:.:   % X X =     #   o & K.-.. . . . .         . . ",
". . . . . . . .   0     g ` p.$X<.- %   O 4 + $.OX} $   : % . +   #   O - E.o.X         . . . . . . ",
". . . . . . . . 1 +   -.'.|.*XOX`.d % 3 X + O   ,.`.5.o   #   &   #   + > ).` X         . . . . . . ",
". . . . . . . . $   m ).=.t 2 z J.I.5   e   o = o h.(.! o . % X   #   @ , {.! X         . . X X . . ",
". . . . . . . .   - #.^.< @   2 s `.H.q . :   O O O y.XXY O 1     #   @ <  XR X         . . X X . . ",
"3     + -   q O     Y.a.# 3 X     u  XC.:     . w   * c._.J $ X   O #   M oXV   . . . . . . . . . . ",
"  2 O *   9   h o.=.'.V.&   i   : X S +XF.4       r   : H.[.n   8 @   f P.x.8 : . . . . . . . . . . ",
"  * < . X @ F V.XXR.`.<X;.  + &   ,   Y 2Xg.  . f   o   4 D. XZ     c L.~.M #   . . . . . . . . . . ",
"# O &   + v ).D.y % 9 4.~...X 3 $ @ o   J _.j.* % ; * @   f J..X8.z.G.{.B   < % . . . . . . . . . . ",
"  :   @ j '.G.r * =   p h.!.]   o 8   O o ~ &X3.  3 = . 4   s 7X^.T.2.b   X   5 . . . . . . . . . . ",
"#   $ p c._.h     2   + 8 3.%X_   5 o % : X ! XXx.@   . ; . . _.+.% <   : $     . . . . . . . . . . ",
";   > | OXB   0 o > + <   3 b._.`   7 5     , X.&X<.2   > # u +X_   7 & , O 5 * . . . . . . . . . . ",
"  l   A.M.  # O @       5 O * Z.[.F   + 1 $ . . } =XO.8 . * x.!.- 4 <   O %   # . . . . . . . . . . ",
"  # X n.e.$   . # # X o @   O 9 S.(.l + %   i . X +.7XH.5.`.=Xb . . . . . . . . . . . . . . . . . . ",
"  <   1.,X&   w     - +   @ 2   2 {.G.- + w . + @ ; N.,XJ.q.x r . . . . . . . . . . . . . . . . . . ",
". ; . z U.S.>   > O   o o + @ . $ e ^.!.4   1 $ 6   z.b.# e     . . . . . . . . . . . . . . . . . . ",
"+   >   b 8X6.,   *   X 4 o   < 4   B @XD.5   O   = `.l.  ; ; q . . . . . . . . . . . . . . . . . . ",
"#   o   % S $Xb.  + + @ % O X %   t   N OXF.z - & 3.^.D ; &   o . . . . . . . . . . . . . . . . . . ",
"      4 .   #.'.l.3   $     ;   o + %   Y |./.p.T.@Xt.  . * 5   . . . . . . . . . . . . . . . . . . ",
"    o 1   2   ! &X;.5 X % O . & %   $   : 4.OX_.l.M # %     ; & . . . . . . . . . . . . . . . . . . ",
"@ +     4   *   Q 1Xd.  % ,   4 & .   y   W oX<   %       7 O . . . . . . . . . . . . . . . . . . . ",
". . . . . . . .   >. XO.$ @   o . , + @   *.OX5 . . . . . . . . . . . . . . . . . . . . . . . . . . ",
". . . . . . . . >   [ 7X1.  q X d   y   v $X2.  . . . . . . . . . . . . . . . . . . . . . . . . . . ",
". . . . . . . . = $ % | .X>.  @ @ >   g !.C.0 i . . . . . . . . . . . . . . . . . . . . . . . . . . ",
". . . . . . . .     # # 3.&X}     ; V $XD.& *   . . . . . . . . . . . . . . . . . . . . . . . . . . ",
". . . . . . . . @     : = >.4X3.W  .T.A.l @ 7 8 . . . . . . . . . . . . . . . . . . . . . . . . . . ",
". . . . . . . . ; > % .   7 >.I.'.=XB.1   =   2 . . . . . . . . . . . . . . . . . . . . . . . . . . ",
". . . . . . . . $   d 9   , + w n r & * o * 0   . . . . . . . . . . . . . . . . . . . . . . . . . . ",
". . . . . . . . @ 9     +   #   o .   + *     $ . . . . . . . . . . . . . . . . . . . . . . . . . . ",
". . . . . . . . . . . . . . . . . . . . . . . . . . . . . . . . . . . . . . . . . . . . . . . . . . ",
". . . . . . . . . . . . . . . . . . . . . . . . . . . . . . . . . . . . . . . . . . . . . . . . . . "
};
