/* XPM */
static char *a40ad19fcfde42acb87594f6fb15186cDJaB69uCNYRgGJeo[] = {
/* columns rows colors chars-per-pixel */
"50 50 26 1 ",
"  c black",
". c white",
"X c #F4F4F4",
"o c #090909",
"O c #111111",
"+ c gray10",
"@ c #3E3E3E",
"# c #ECECEC",
"$ c #D5D5D5",
"% c #323232",
"& c #585858",
"* c gray98",
"= c #252525",
"- c #DFDFDF",
"; c #494949",
": c gray58",
"> c #6D6D6D",
", c #656565",
"< c gray47",
"1 c gray64",
"2 c #CBCBCB",
"3 c #9D9D9D",
"4 c #C1C1C1",
"5 c gray71",
"6 c #ACACAC",
"7 c #898989",
/* pixels */
"                        o+O                       ",
"                       &122:=                     ",
"                     O:X....2%                    ",
"                    O3.......6o                   ",
"                    <........X@                   ",
"                   %#.........<                   ",
"     O&367%        :..........3                   ",
"    =6*...-,      =-..........6                   ",
"   O5......X&     &*..........6                   ",
"   <........$=    7...........:                   ",
"  +$.........<    1...........>                   ",
"  &*.........4o  o5..........#%                   ",
"  7..........-=   6..........5o                   ",
"  1..........X@   :.........*&       +@&,&%O      ",
"  6..........X@   &*........6o    o;3$X...#4&     ",
"  1..........X@   +2.......$%    =1X........X>    ",
"  7..........-=    &X.....$@    ;$...........#%   ",
"  ;*.........4o    o,-**#1%    ;-.............<   ",
"  +2.........>       =;&%o    =$..............7   ",
"   >........2+                7...............<   ",
"   O6......#&      o+==O     +$..............X@   ",
"    +1X...$&    O;:4-##2>o   ;X..............5o   ",
"     o;:3<=   +,2X......*<   ;*.............-@    ",
"            o&2..........#@  %#............#&     ",
"           =3X............:  o6...........-&      ",
"       O@,:$..............$+  %2........X1%       ",
"     @:2#.................*;   =7$#*X#2:@o        ",
"    <#.....................7     +%;@%O           ",
"   <X......................4O                     ",
"  ,X.......................#%                     ",
" =$.........................<                     ",
" >..........................4O      o%,7:7>@O     ",
" 1..........................X;     ;6#.....X4,O   ",
"O4...........................3    @#.........*1+  ",
"+2...........................$+  =4............6O ",
"+$...........................#% o:.............*, ",
"O4...........................*; @#..............5o",
" :............................, &...............2+",
" @#..........................., ;X..............4O",
"  >X..........................> O2..............7 ",
"   ,-.........................>  &X............-% ",
"    %3#......................*&   >#..........-;  ",
"     o@3-....................-=    ;5X......#6%   ",
"        =>5*.................3      o@<1551<@o    ",
"          o:................$=          oo        ",
"           O1..............-;                     ",
"            +3*...........4@                      ",
"             o,$........-<+                       ",
"               +,34$$43,=                         ",
"                  O++O                            "
};
