/* XPM */
static char *_418ab03f13945098a7877aa7879c21c[] = {
/* columns rows colors chars-per-pixel */
"50 50 15 1 ",
"  c black",
". c #E6E5E5",
"X c #EAE9E9",
"o c #E7E6E6",
"O c #D3D2D2",
"+ c white",
"@ c #282828",
"# c #6E6D6D",
"$ c #DFDEDE",
"% c #878686",
"& c gray23",
"* c gray47",
"= c #9F9E9E",
"- c #494848",
"; c gray70",
/* pixels */
".....X#                                   @Oo....+",
".....X#                                   @Oo....+",
".....X#                                   @Oo....+",
".....X#  @=============================#  @Oo....+",
".....X#  &$XXXXXXXXXXXXXXXXXXXXXXXXXXXX%  @Oo....+",
".....X#  &$o..........................X%  @Oo....+",
".....X#  &$o..........................X%  @Oo....+",
".....X#  &$o..........................X%  @Oo....+",
".....X#  &$o..........................X%  @Oo....+",
".....X#  &$o..........................X%  @Oo....+",
".....X#  &$o..........................X%  @Oo....+",
".....X#  &$o..........................X%  @Oo....+",
".....X#  &$o..........................X%  @Oo....+",
".....X#  &$o..........................X%  @Oo....+",
".....X#  &$o..........................X%  @Oo....+",
".....X#  &$o..........................X%  @Oo....+",
".....X#  &$o..........................X%  @Oo....+",
".....X#  &$o..........................X%  @Oo....+",
".....X#  &$o..........................X%  @Oo....+",
".....X#  &$o..........................X%  @Oo....+",
".....X#  &$o..........................X%  @Oo....+",
".....X#  &$o..........................X%  @Oo....+",
".....X#  &$o.....................$$$..X%  @Oo....+",
".....X#  &$o....................O-&-;XX%  @Oo....+",
".....X#  &$o...................oO   =XX%  @Oo....+",
".....X#  &$o....................O   =XX%  @Oo....+",
".....X#  &$o....................O*##;oX%  @Oo....+",
".....X#  &$o.....................oooo.X%  @Oo....+",
".....X#  &$o..........................X%  @Oo....+",
".....X#  &$o..........................X%  @Oo....+",
".....X#  &$o..........................X%  @Oo....+",
".....X#  &$o..........................X%  @Oo....+",
".....X#  &$o..........................X%  @Oo....+",
".....X#  &$o..........................X%  @Oo....+",
".....X#  &$o..........................X%  @Oo....+",
".....X#  &$o..........................X%  @Oo....+",
".....X#  &$o..........................X%  @Oo....+",
".....X#  &$o..........................X%  @Oo....+",
".....X#  &$o..........................X%  @Oo....+",
".....X#  &$o..........................X%  @Oo....+",
".....X#  &$o..........................X%  @Oo....+",
".....X#  &$o..........................X%  @Oo....+",
".....X#  &$o..........................X%  @Oo....+",
".....X#  &$o..........................X%  @Oo....+",
".....X#  &$o..........................X%  @Oo....+",
"...XXX#  &$XXXXXXXXXXXXXXXXXXXXXXXXXXXX%  @OXXo..+",
"..$%**&  @*****************************-   #**Oo.+",
".o$@                                          =X.+",
"oo$&                                          ;Xo+",
"OOO@                                          =OO+"
};
