/* XPM */
static char *_e4d702549ee477c812aaf871bd94257[] = {
/* columns rows colors chars-per-pixel */
"50 50 34 1 ",
"  c white",
". c #777777",
"X c LightGray",
"o c #2C2C2C",
"O c #202020",
"+ c gray48",
"@ c gray15",
"# c #D8D8D8",
"$ c #040404",
"% c gray",
"& c gray96",
"* c #818181",
"= c #E1E1E1",
"- c #8E8E8E",
"; c #FBFBFB",
": c #FEFEFE",
"> c #444444",
", c #979797",
"< c #A9A9A9",
"1 c #B4B4B4",
"2 c #7E7E7E",
"3 c #EEEEEE",
"4 c #C5C5C5",
"5 c #E7E7E7",
"6 c gray44",
"7 c gray31",
"8 c #5A5A5A",
"9 c gray53",
"0 c #161616",
"q c gray80",
"w c #656565",
"e c gray64",
"r c #353535",
"t c #9D9D9D",
/* pixels */
"                                                  ",
"                                                  ",
"             q2+++.1                              ",
"       3XXXX#-o@oo@wqX=:                          ",
"       eo@oo@6q#XX#,r@.&                          ",
"     &,6.+...1 <+**2.++9#                         ",
"    3%79:    &48@o@+& eO<                         ",
"    ,>13:    <>e#XX=  eO<                         ",
"    +Oq      q2+1     X9.e                        ",
"    *@4       38wX&    &w8q&                      ",
"    *@4       :=->%    :5,>1                      ",
"    *@XX+61  :  ,01      <0t                      ",
"    *O<-o@6#&   ,O1      <Oe                      ",
"    9$O.X#9>q   ,O1      <Oe                      ",
"    9082,&,0%   ,O1      #9+e&                    ",
"    *@q-Oe+O%   ,O1       &7>3                    ",
"    *@q,$O0O%   ,O1       &7>3                    ",
" 422+-5X6$@-=   ,0%:      &7>3          5-4       ",
"#6$$.   582:    <>t5      &7>3         3<>9=;     ",
"o0$$+   ;=5:    &476&     &7>3        :*7%.8=     ",
"$$$$.:   :       ;t69=  <+**1        =-.+9+,3     ",
"$0o@-:             t0-=4>$$-#XXXXXXX&%O,qO*       ",
"$wX#5              e00o@$$$0ooo@oo@o14@,qO9       ",
"$2            ;,e; X9+..2*2+.........+**2*4       ",
"o+#;    ;=XXX#47.&                 ;+85wr=        ",
"#27#    58@oo@><5                   ==;wr=        ",
" 4.++.++++>$8.9=                     5-.t3        ",
"  =8@oo@>#,@%                        %O-          ",
"  ;=XXXX#;-O%                        %O-          ",
"   :      -O%                        =-.t&        ",
"          -O%                         ;w@1&       ",
"          -@%                         ;6$@e       ",
"          -@%                         ;w06*..4    ",
"          -O%                         ;27%2@@*=;  ",
"          -O%                         :3<>*#X67=  ",
"        &,rO%              <6....6t;    40r<:q2*4 ",
"       &%7$O%   3XXXXXXXX#qw@ooo@O84#=; X>$o1=<O* ",
"       t>1.O%   1rooooooo@r,#XXXX#<rO85 &#8$@oO$* ",
"     &,6-&t@% &e..++...+..2#      =96.+q  4w$r**4 ",
"    3%79;56O% 5r8&                   q>*XX&#72=;  ",
"    ,><&5w$O% 5r8;                   &X6Ooe #67=  ",
"  3,.,&#w0o-5X*+1;                     1...t&6O#  ",
"  #o8X#9@$6: -O1                         :wr#,7%3 ",
"  #o$o@21ow: -O%                         :wo#;1>, ",
"  3,..2**2%&t6-=                         :1+.*w$+ ",
"     ;=*>X;47+;                            X>O@ot ",
"     =86# e><3                             &#XXX3 ",
"     #oo*2+-5:                                    ",
"     #r$$$6;                                      ",
"                                                  "
};
