/* XPM */
static char *_3ab84d18c2047ffbfdc4e0491236f00HSiM63JEaGFx65lY[] = {
/* columns rows colors chars-per-pixel */
"50 50 34 1 ",
"  c white",
". c #777777",
"X c gray83",
"o c #282828",
"O c gray49",
"+ c gray96",
"@ c #202020",
"# c #848484",
"$ c gray55",
"% c gray26",
"& c gray62",
"* c #020202",
"= c #F9F9F9",
"- c gray69",
"; c #959595",
": c gray75",
"> c #E9E9E9",
", c gray33",
"< c #181818",
"1 c #DADADA",
"2 c #FDFDFD",
"3 c #E2E2E2",
"4 c #2D2D2D",
"5 c #A7A7A7",
"6 c gray79",
"7 c #494949",
"8 c gray82",
"9 c gray40",
"0 c gray72",
"q c #353535",
"w c #0C0C0C",
"e c #EFEFEF",
"r c #5D5D5D",
"t c #6F6F6F",
/* pixels */
"                                                  ",
"                                                  ",
"                                                  ",
"                                                  ",
"                                                  ",
"                        5..OO......O8             ",
"                      +69o4q44444444$32           ",
"                      0%&1XXXXXXXXX89r>           ",
"                    25.OO###-       -.#6          ",
"                   +89O>.o4496+      :@$          ",
"                   0r5>238X1&%-      :@$          ",
"                   5q0      0w;      >$.&e        ",
"                   54-    2>&%-   +183=9q3        ",
"                   &o-    +t,6+   6%@9>tq3        ",
"                 +5O$1    e7%+  =0,*%O####6       ",
"                 >7r+     e,7e  +r*406o;6o$       ",
"                 >%,+     e,7e  +rq: :@;6@#       ",
"                 >%,+     e7%+  +r<O$rw;6<qO#O;+  ",
"                 >%,+     +t,6+ =O<w**4-X7o@w*o-e ",
"                 >%,+     2>&%- 2>&<*q:++115<**@& ",
"                 >%,+       -<&   3$.5=    8@***# ",
"X>=181=          >%,+       -@&            X7oow# ",
"q&3,@7X          >%,+       -<&            +115@O ",
"OOOO##O..........t<@O3    =-O#8               1@q.",
" ;7-3:,oo444ooooooooq&1Xe +,7e               e-7oo",
" e07@%-18XXX88XX88X16r@q: +7%e               $7018",
"  e;.OO:            25...O.<%>-t...OX>#.O....t;e  ",
"    +:7#2              +to4ot>O@ooo4;-%w*@oo4&    ",
"    &7->               238XX3=3888X89,:,o018X>    ",
"    O@8                             -.#O&+        ",
"    Oo6                              :@$          ",
"    O@6                              :@$          ",
"    O@6                              :@$          ",
"    ;%-e                             :@$          ",
"    e:7#2                            :@$          ",
" :O.O9w92    6;3              5;+   0,<;          ",
" #*@444$2    ;<;1XX8X+      +8rre +Xt<w;          ",
" O@51XX>     ;w<44o@q:      :%$3= 6%$&@$          ",
" OoX8&+   6#..O............#,*&   :<&6@$          ",
" Oo8$@5112;*<#=     e9@o44ow*q0  >;<&6o$          ",
" #48$*@o%X;<&e      2388X16%q6+ =O<w&:@$          ",
" OoX;**4.OO$>           23$O-=0..O,<&:<$          ",
" ;7-.**O3q92             5<& +r*40:@;8%#3=        ",
" e07w**O3q92             5@5 +,4:20@;2X9,3        ",
"  e;.OOO9w9=           =5O$11$.52 0<;  ro3        ",
"       &4@#=           e77+ -@&   67$3=#,:e       ",
"       >X8>2           e77+ -<&   +X9r>+-%&       ",
"                       =5OOO,<&     0.O#9w#       ",
"                         -w**w5      :@***$       ",
"                                                  "
};
