/* XPM */
static char *_db8ee45d80d486abad138af7fe1e86c[] = {
/* columns rows colors chars-per-pixel */
"50 50 34 1 ",
"  c white",
". c #777777",
"X c LightGray",
"o c #2C2C2C",
"O c #202020",
"+ c gray48",
"@ c gray15",
"# c #D8D8D8",
"$ c #040404",
"% c gray",
"& c gray96",
"* c #818181",
"= c #E1E1E1",
"- c #8E8E8E",
"; c #FBFBFB",
": c #FEFEFE",
"> c #444444",
", c #979797",
"< c #A9A9A9",
"1 c #B4B4B4",
"2 c #7E7E7E",
"3 c #EEEEEE",
"4 c #C5C5C5",
"5 c #E7E7E7",
"6 c gray44",
"7 c gray31",
"8 c #5A5A5A",
"9 c gray53",
"0 c #161616",
"q c gray80",
"w c #656565",
"e c gray64",
"r c #353535",
"t c #9D9D9D",
/* pixels */
"                                                  ",
"                                                  ",
"                              1.+++2q             ",
"                          :=Xqw@oo@o-#XXXX3       ",
"                          &.@r,#XX#q6@oo@oe       ",
"                         #9++.2**+< 1...+.6,&     ",
"                         <Oe &+@o@84&    :97%3    ",
"                         <Oe  =XX#e><    :31>,    ",
"                        e.9X     1+2q      qO+    ",
"                      &q8w&    &Xw83       4@*    ",
"                      1>,5:    %>-=:       4@*    ",
"                      t0<      10,  :  16+XX@*    ",
"                      eO<      1O,   &#6@o-<O*    ",
"                      eO<      1O,   q>9#X.O$9    ",
"                    &e+9#      1O,   %0,&,2809    ",
"                    3>7&       1O,   %O+eO-q@*    ",
"                    3>7&       1O,   %O0O$,q@*    ",
"       4-5          3>7&      :%0,   =-@$6X5-+224 ",
"     ;=9><3         3>7&      5t><    :285   .$$6#",
"     =8.%7*:        3>7&     &674&    :5=;   +$$0o",
"     3,+9+.-=        1**+<  =96t;       :   :.$$$$",
"       *Oq,O%&XXXXXXX#-$$>4=-0t             :-@o0$",
"       9Oq,@41o@oo@ooo0$$$@o00e              5#Xw$",
"       4*2**+.........+2*2..+9X ;e,;            2$",
"        =rw58+;                 &.74#XXX=;    ;#+o",
"        =rw;==                   5<>@oo@85    #72#",
"        3t.-5                     =9.8$>++++.++.4 ",
"          -O%                        %@,#>@oo@8=  ",
"          -O%                        %O-;#XXXX=;  ",
"        &t.-=                        %O-      :   ",
"       &1@w;                         %O-          ",
"       e@$6;                         %@-          ",
"    4..*60w;                         %@-          ",
"  ;=*@@2%72;                         %O-          ",
"  =76X#*><3:                         %O-          ",
" 4*2q:<r04    ;t6....6<              %Or,&        ",
" *O<=1o$>X ;=#48O@ooo@wq#XXXXXXXX3   %O$7%&       ",
" *$Oo@$8#& 58Or<#XXXX#,r@ooooooor1   %O.1>t       ",
" 4**r$w4  q+.69=      #2..+...++..e& %@t&-6,&     ",
"  ;=27#&XX*>q                   &8r5 %O65;97%3    ",
"  =76# eoO6X&                   ;8r5 %O$w5&<>,    ",
"  #O6&t...1                     ;1+*X5-o0w#&,.,3  ",
" 3%7,#rw:                         1O- :6$@9#X8o#  ",
" ,>1;#ow:                         %O- :wo12@o$o#  ",
" +$w*.+1:                         =-6t&%2**2..,3  ",
" to@O>X                            ;+74;X>*=;     ",
" 3XXX#&                             3<>e #68=     ",
"                                    :5-+2*oo#     ",
"                                      ;6$$$r#     ",
"                                                  "
};
