/* XPM */
static char *_176e41c27b149faf43a3edaa56350fchP1fcLacRsaDKtZB[] = {
/* columns rows colors chars-per-pixel */
"50 50 34 1 ",
"  c white",
". c #FDFDFD",
"X c gray10",
"o c #040404",
"O c #D2D2D2",
"+ c #E2E2E2",
"@ c #F4F4F4",
"# c gray91",
"$ c gray18",
"% c gray46",
"& c #6C6C6C",
"* c gray70",
"= c gray49",
"- c #EFEFEF",
"; c gray14",
": c #F9F9F9",
"> c #868686",
", c gray22",
"< c #C3C3C3",
"1 c #3F3F3F",
"2 c gray59",
"3 c gray35",
"4 c gray56",
"5 c gray32",
"6 c gray27",
"7 c #626262",
"8 c gray73",
"9 c #A5A5A5",
"0 c #DDDDDD",
"q c gray80",
"w c #4C4C4C",
"e c #9D9D9D",
"r c gray68",
"t c #ECECEC",
/* pixels */
"                                                  ",
"                                                  ",
"                       -++++++++++0#:             ",
"                       2,,,,,,,11,$7#             ",
"                     t9%3333333333574O            ",
"                   ..8,>++++-@@@@@:<1=-.          ",
"                   .47e=55w70      -*%&0          ",
"                  #*7%t9111w2O.      %X<          ",
"                  r$2@.@##-q67@      =$<          ",
"                  9Xe      -$w@      O4%9:        ",
"                  9X2     t83=@   +<<-0$7:        ",
"                  9Xe     219-.  :=X;e0,7:        ",
"                @9=>O     =X<   0>;o7====40       ",
"                #6w-      >;8   *Xo3+=;q2X*       ",
"                #1w-      >;8   *X&+ =;q2X*       ",
"                #6w-      =X<   rX5921;q2X7224*:  ",
"                #1w-      4,r:. 8$oooo,Or;XXoo1q. ",
"                #6w-      +r7>: t*1oo5<@+88%ooo6* ",
"                #6w-       #,5@   e55r     roooo4 ",
" :@.            #1w-       +13@   @--:     *Xooo4 ",
" 8=0            #65@       #,5@            +99%X> ",
"<>3e0.          #6,*t     #r3>@               <X> ",
"X=qw&@          #wo;r ..  4,r@.               8;> ",
"o%#,w:          -6X%%&&<  >X<                9&>q ",
"$=857q@   @OqqOO<3%#=;$>OO&;8:OOOqqqqOOOOOOOq73#  ",
"O>6r26*   Ow;$$;,e#.+Oq%$$XX<8,$$$$$$$$$$$$;$4+.  ",
" >X<9Xr#4==&&&&7%0     *&&&>+eooX7%&&&&&&&&&%q    ",
" >;<9X2r$X50 ..:..     ...:. r;X5q@........:..    ",
" >X<roX7r8q:                 #<<25*               ",
" 8&4>754:                       O&=*@             ",
"  013#::.                        -710             ",
"  +,5:                           .7$0             ",
"  +,3@                           :2790            ",
"  +,3@                           .:8,>            ",
"  +,5@                             q;%            ",
"  +,3@                             <;%            ",
"  +13@                             <;%            ",
"  #,X=0                            <;$4t          ",
" @<5X$et.               :+#        O6X1*-         ",
" 9weO87&t               034        @Oqr5>.        ",
"2=%0 .6,#           8444>&%4444242O   ->&e+       ",
"o%@ .055#   @#####t0&XXX6Oe;X;Xoo;2t#@ .4;*       ",
"o%  834q:   91166616>**r<@+*r8r$;e=669  4Xr       ",
"o%. 2Xr   -8%wwwww65<        #r&4@&o1%*@4Xr       ",
"o%. eXe.. q,%-------:        9,e@t71q>1<2$*       ",
"o&  eo$2: <X%                0e%33=8:O47&9+       ",
"1%<:<wo$r@07%q@               :=$1*   #7>         ",
"+>6<.O6o;9.+%1q               .t0+@   :#t         ",
" O>%%%;;==%%$;<                                   ",
"  +1ooo5+%ooo;q                                   "
};
