/* XPM */
static char *d4aa7ded99ba437fe76d0d8efa6e3247rfpqV8d8MQybGyHi[] = {
/* columns rows colors chars-per-pixel */
"50 50 81 1 ",
"  c #FF9801",
". c white",
"X c #010000",
"o c #F6F6F6",
"O c #FF9B03",
"+ c #F49103",
"@ c #080604",
"# c #FF9901",
"$ c #F8F8F8",
"% c #FA9502",
"& c #CC7A05",
"* c #121213",
"= c #FBFAF8",
"- c #EEEEEE",
"; c #616162",
": c #FF9700",
"> c #704203",
", c #DE8504",
"< c gray90",
"1 c #FDF4E3",
"2 c #FEAB2E",
"3 c #120B05",
"4 c #4D2E04",
"5 c #BCBBB9",
"6 c #FDFCFC",
"7 c #EAEAEB",
"8 c #FDC774",
"9 c #232222",
"0 c #2A2A2B",
"q c #834F06",
"w c #3F3E3D",
"e c #3A3937",
"r c #1D1D1D",
"t c gray86",
"y c gray80",
"u c #A7A7A7",
"i c gray52",
"p c #382003",
"a c #6C6C6D",
"s c gray83",
"d c #965905",
"f c #FD9904",
"g c gray88",
"h c #B1B0B0",
"j c #333435",
"k c gray45",
"l c #585756",
"z c #4B4B4B",
"x c #EA8C04",
"c c #F2F2F3",
"v c gray62",
"b c #939494",
"n c #895815",
"m c #623C0A",
"M c #797979",
"N c #C9C9CA",
"B c #686867",
"V c #B7B5B2",
"C c gray76",
"Z c #1F1203",
"A c #B96E04",
"S c #543307",
"D c #FFA116",
"F c #FDBC59",
"G c #FCB952",
"H c #AD6807",
"J c #271908",
"K c #8E8D8C",
"L c #735B3D",
"P c #442804",
"I c #6A5232",
"U c #FDDBA5",
"Y c #B69E7D",
"T c #505051",
"R c #FBDFB0",
"E c #FBD699",
"W c #494745",
"Q c #FCEAC9",
"! c #B98B4C",
"~ c #8A7254",
"^ c #817464",
/* pixels */
".............................6tv;er**rwah7........",
"...........................$5B9@XXXXXXXX@jb7......",
"..........................Nl3XXJ444444444PZe5.....",
"........................-i*XX33df%%%%%%%%+>@*b6...",
".......................glXXXP&&x#         xdX@b...",
"......................twX3>qH###          #,q3*V..",
".....................twX3SxO#              #+m3j<.",
"....................7zXXm+f                 #+qXK.",
"...................6MXXq,#                   #,de<",
"...................5*3>,O                     O&3u",
"..................czXp+#                      #&pB",
"..................h@Xp+#                       %,L",
".................6lXSA%                        #+m",
".................trXqO                          +S",
".................u@Xq#                          +S",
".................kXZd#                          +m",
"................6TXq,#                         #+I",
"................ce@&O                         #+A~",
"................-0@&#                         #&JK",
"................70@&#                         #&9y",
"................cj@&#                         O&lo",
"...............<i*@&#                        :xHh.",
".............-vjXX3&#                        #qWc.",
"............5w@XJ>A+#                  ::::  Onh..",
"...........yrX@Sd&##                  :2882 %HY=..",
"...........iX@p,#                     D861F+&L<...",
"...........iX4,%                    #fE=12OAws....",
"...........s9Z>x#         :88 :::f8UUUE8GDdIN.....",
"............Cj3d,#       OGQQFGGGF11RRFD+ALN......",
".............yrXq+f     O21=11111118ff+,&^g.......",
"............-;XXZ>%    :F1682222222D %>I5=........",
"...........-;XXXX4%    :2882&>>>>>>>n!V7..........",
"..........-;X*ee*P%#    :::,n0990w;bNc............",
".....6...-;XXl7-;px+++     mk7<<7o................",
"..7v;TaVg;XXMsoo;@pppm+#   ns.....................",
".ywXXXX@0X*By=oouaa**Zq,O+dY......................",
"teX@9000@*z<ooooo-CMCeXd,Heg......................",
"kX@95<gte;<coooooV;<.C9@3Ju.......................",
"9Xjh7ooc5Nooooo$bi<...yMk56.......................",
"3Xzcoooo$ooooo-uit................................",
"rXz-ooooooooo-Cag.................................",
";Xzcoooooooo$uwt..................................",
"y9rBg6$civoo$v@u..................................",
".V9@Khhu9Boo$5wa..................................",
"..sMw*@*3koooosBo.................................",
"....-Wrb5tooo$tk$.................................",
".....i*;s6oo$yav..................................",
".....t0XKtoosM0g..................................",
"......V9@a-7l05...................................",
".......Nljz;ky...................................."
};
