/* XPM */
static char *e86af2d285544488a6995630e89bf35b[] = {
/* columns rows colors chars-per-pixel */
"50 50 34 1 ",
"  c white",
". c #777777",
"X c gray83",
"o c #282828",
"O c gray49",
"+ c gray96",
"@ c #202020",
"# c #848484",
"$ c gray55",
"% c gray26",
"& c gray62",
"* c #020202",
"= c #F9F9F9",
"- c gray69",
"; c #959595",
": c gray75",
"> c #E9E9E9",
", c gray33",
"< c #181818",
"1 c #DADADA",
"2 c #FDFDFD",
"3 c #E2E2E2",
"4 c #2D2D2D",
"5 c #A7A7A7",
"6 c gray79",
"7 c #494949",
"8 c gray82",
"9 c gray40",
"0 c gray72",
"q c #353535",
"w c #0C0C0C",
"e c #EFEFEF",
"r c #5D5D5D",
"t c #6F6F6F",
/* pixels */
"                                                  ",
"                                                  ",
"                                                  ",
"                                                  ",
"                                                  ",
"             8O......OO..5                        ",
"           23$44444444q4o96+                      ",
"           >r98XXXXXXXXX1&%0                      ",
"          6#.-       -###OO.52                    ",
"          $@:      +6944o.>O98+                   ",
"          $@:      -%&1X832>5r0                   ",
"        e&.$>      ;w0      0q5                   ",
"        3q9=381+   -%&>2    -45                   ",
"        3qt>9@%6   +6,t+    -o&                   ",
"       6####O%*,0=  +%7e    1$O5+                 ",
"       $o6;o604*r+  e7,e     +r7>                 ",
"       #@6;@: :qr+  e7,e     +,%>                 ",
"  +;O#Oq<6;wr$O<r+  +%7e     +,%>                 ",
" e-o*w@o7X-4**w<O= +6,t+     +,%>                 ",
" &@**<511++:q*<&>2 -%&>2     +,%>                 ",
" #***@8    =5.$3   &<-       +,%>                 ",
" #woo7X            &@-       +,%>          =181=>X",
" O@511+            &<-       +,%>          X7@,3&q",
".q@1               8#O-=    3O@<t..........O##OOOO",
"oo7-e               e7,+ eX1&qoooooooo444oo,:3-7; ",
"8107$               e%7+ :q@r61X88XX88XXX81-%@70e ",
"  e;t....O.#>XO...t->%<.O...52            :OO.;e  ",
"    &4oo@*w%-;4ooo@O>to4ot+              2#7:+    ",
"    >X810o,:,98X8883=3XX832               >-7&    ",
"        +&O#.-                             8@O    ",
"          $@:                              6oO    ",
"          $@:                              6@O    ",
"          $@:                              6@O    ",
"          $@:                             e-%;    ",
"          $@:                            2#7:e    ",
"          ;<,0   +;5              3;6    29w9O.O: ",
"          ;w<tX+ err8+      +X8XX1;<;    2$444@*# ",
"          $@&$%6 =3$%:      :q@o44<w;     >XX15@O ",
"          $@6&<:   &*,#............O..#6   +&8XoO ",
"          $o6&<;>  0q*wo44o@9e     =#<*;2115@$8oO ",
"          $@:&w<O= +6q%61X8832      e&<;X%o@*$84# ",
"          $<:&<,O..0=-O$32           >$OO.4**;XoO ",
"        =3#%8;@:04*r+ &<5             29q3O**.-7; ",
"        3,9X2;@02:4,+ 5@5             29q3O**w70e ",
"        3or  ;<0 25.$11$O5=           =9w9OOO.;e  ",
"       e:,#=3$76   &@- +77e           =#@4&       ",
"       &%-+>r9X+   &<- +77e           2>8X>       ",
"       #w9#O.0     &<,OOO5=                       ",
"       $***@:      5w**w-                         ",
"                                                  "
};
