/* XPM */
static char *df0272fb7b234168b79121e0cd1d48e8[] = {
/* columns rows colors chars-per-pixel */
"50 50 22 1 ",
"  c black",
". c white",
"X c #0C0C0C",
"o c #767676",
"O c gray47",
"+ c gray85",
"@ c #181818",
"# c gray8",
"$ c LightGray",
"% c gray75",
"& c #9B9B9B",
"* c gray80",
"= c gray96",
"- c gray52",
"; c gray89",
": c #414141",
"> c gray40",
", c gray19",
"< c #B9B9B9",
"1 c #AAAAAA",
"2 c gray33",
"3 c gray14",
/* pixels */
"..................................................",
"..................................................",
"..................................................",
"...........+%%%%%%%%%%%%%%%%%%%%%+................",
"...........OXXXXXXXXXXXXXXXXXXXXXO................",
"...........O  :&&&&&&&&&&&&&&&&-Xo................",
"...........O  2+=..............+@o................",
"...........O  X3*..............+@o................",
"...........O    >1.............+@o................",
"...........O     :;=...........+@o................",
"...........O     X,<...........+@o................",
"...........O       ><=.........+@o................",
"...........O        ,;.........+@o................",
"...........O        X:1........+@o................",
"...........O          >*=......+@o................",
"...........O           3$......+@o................",
"...........O           #$......+@o................",
"...........O           #$......+@o................",
"...........O           #$......+@o................",
"...........O           #$......+@o................",
"...........O           #$......+@o................",
"...........O           #$......+@o................",
"...........O           #$......+@o................",
"...........O           #$......+@o................",
"...........O           #$......+@o................",
"...........O           #$......+@o................",
"...........O           #$......+@o................",
"...........O        @O:#$......+@o................",
"...........O        ,=-#$......+@o................",
"...........O        ,=-#$......+@o................",
"...........O        @&2#$......+@o................",
"...........O           #$......+@o................",
"...........O           #$......+@o................",
"...........O           #$......+@o................",
"...........O           #$......+@o................",
"...........O           #$......+@o................",
"...........O           #$......+@o................",
"...........o           #$......+@o................",
"...........<>X         Xo------oXo................",
"............;,X         XXXXXXXXX-................",
".............+o        #1********;................",
"..............<2#      #$.........................",
"...............=:      #$.........................",
"................%O     #$.........................",
".................*:#   #$.........................",
".................==2   #$.........................",
"...................<oX #$.........................",
"....................+,X#$.........................",
"....................=;>#$.........................",
"......................1>;........................."
};
