/* XPM */
static char *_8fdd7a5698a4d02f2a5bcabf8e460c3CjloCrTSWzuunTBc[] = {
/* columns rows colors chars-per-pixel */
"50 50 34 1 ",
"  c white",
". c #797979",
"X c #D2D2D2",
"o c #020202",
"O c #838383",
"+ c #282828",
"@ c #444444",
"# c #9D9D9D",
"$ c #DADADA",
"% c #222222",
"& c #AEAEAE",
"* c #F8F8F8",
"= c gray11",
"- c gray78",
"; c #E9E9E9",
": c #2D2D2D",
"> c #F3F3F3",
", c gray99",
"< c #7E7E7E",
"1 c gray58",
"2 c gray84",
"3 c #898989",
"4 c gray74",
"5 c #727272",
"6 c #A4A4A4",
"7 c #676767",
"8 c #131313",
"9 c #373737",
"0 c gray71",
"q c #8E8E8E",
"w c gray33",
"e c gray37",
"r c #EFEFEF",
"t c #E1E1E1",
/* pixels */
"                                                  ",
"                                                  ",
"                                 &.OX             ",
"                        tXXXXXX2X7%:qt,           ",
"                       >5%+++::+:1$X7e;           ",
"                      2<.<<<<..5<X  &5O-          ",
"                     ;19#$XXt        4%q          ",
"                    r7e47%:+5>       4=3          ",
"                   XO5&*65...OX      ;q.#r        ",
"                   #=&      &=#   >$Xt*79t        ",
"                   #=&      &%#   -@=7;79t        ",
"                   #=&    *&.3X ,0wo9<OO<O-       ",
"                   #%&    >@@r  *eo:0-%1-%3       ",
"                   #=&    >@@r  *w:4 4%1-%O       ",
"                   #=&    *&.OX ,&<<Oe81;1...<OO- ",
"                   #=&      &=#   -9ooo1  3+:=oo52",
"                   #=&      &=#   *Xwoo1  ;2X7oo8:",
"                   #%&      $3.6>   0<O-     .oooo",
"X;                 #%&       *w@;            q::8o",
":q                 #=&       *w@;            ;227o",
"o5                 6=0       ,w9;               <o",
"o.*tXXX;  rXXXXXXX$O8q;     *Xeer             *$.:",
"oOte+++3  6:+:+::+:=o85*    4@1t,             2@<2",
"o9.OO<<<............<...56  &8#        0........- ",
":+@0$223:+3,          09=e-$#@&  tXXX2X5+::::%wt  ",
"X$0@+:+.X2;           r22#9%e-> *<+::+:q2XXXXX$*  ",
"  r15...<O4,             $<56,  ,&wo@.<-          ",
"       6+o7,                      4%1             ",
"       >0+7,                      4%1             ",
"        *6.qt                     4%1             ",
"          q%4                     4%1             ",
"          q%4                     4%1             ",
"          3%-       *66*       tq24=q             ",
"          q=#$2>    r@@>     ,;6@1&@6             ",
"          18=%@-    r@w>     *5e45w->             ",
"          38eO..&, X3O0      ,w8.<#*              ",
"          #@6>;9w* #=q$2>   *X7+9&                ",
"          >4wOt@w* 6o=+94   4@1$2r                ",
"           *6<58e  $q<@o@&*0.<X                   ",
"           ,t<8=5X2X2,49%74@@r                    ",
"           ;7886#9+%9-,2$#9o@r                    ",
"          >2#@%Xt58%.<.<<O.=@;                    ",
"          $02O=#>r774e+:+74e7r                    ",
"          -.e9o=O*;1@#$X$#@1;,                    ",
"          t0#3<..3;t<<O3O.<2                      ",
"                &@6r>5=o85>                       ",
"                >-w.*rO=3;                        ",
"                  6.<3w=0                         ",
"                   68oo8&                         ",
"                                                  "
};
