/* XPM */
static char *_32dd34cacd743e5f58239137168efc9Ds3IzFLqYKJhRwwQ[] = {
/* columns rows colors chars-per-pixel */
"50 50 19 1 ",
"  c white",
". c black",
"X c #252525",
"o c #F9F9F9",
"O c #111111",
"+ c #3E3E3E",
"@ c gray30",
"# c #323232",
"$ c gray70",
"% c gray84",
"& c gray94",
"* c #5B5B5B",
"= c #E9E9E9",
"- c gainsboro",
"; c #C5C5C5",
": c gray49",
"> c gray66",
", c #8E8E8E",
"< c #6F6F6F",
/* pixels */
"..................................................",
"..............OOOOOOOOOOOOOOOOOOOOXXXX.OXXXXXXXXO.",
".............O++++++++++++++++++++*::<.#::::::::X.",
".O+<,,,,,,,:OX>>>>>>>>>>>>>>>>>>>>$;;>O@;;;;;;;;+.",
".X:;       &X+o                      %O*        @.",
".X:;       =X+o                      %O*       o@.",
".X:;       =X+o                      %O*       o@.",
".X:;       =X+o                      %O*       o@.",
".X:;       =X+o                      %O*       o@.",
".X:;       =X+o                      %O*       o@.",
".X:;       =X+o                      %O*       o@.",
".X<$=======%X+-======================;O@========@.",
"..OXXXXXXXXX..XXXXXXXXXXXXXXXXXXXXXXXX.OXXXXXXXX..",
".OX#++++++++++++++++++++O.X#++++++++++++++++++++O.",
".X:;ooooooooooooooooooo=#X>%ooooooooooooooooooo&@.",
".X:;                   &#X$-                   o@.",
".X:;                   &#X$-                   o@.",
".X:;                   &#X$-                   o@.",
".X:;                   &#X$-                   o@.",
".X:;                   &#X$-                   o@.",
".X:;                   &#X$-                   o@.",
".X:;                   &#X$-                   o@.",
".X:;                   &#X$-                   o@.",
".X<$&&&&&&&&&&&&&&&&&&&=#X>%&&&&&&&&&&&&&&&&&&&&@.",
"..OX####################..XX####################O.",
".OOXXXXXXXXX..XXXXXXXXXXXXXXXXXXXXXXXX.OXXXXXXXXO.",
".X<,$$$$$$$>O#>$$$$$$$$$$$$$$$$$$$$$$,O+$$$$$$$$#.",
".X:$-------;X#%----------------------$O@-------%+.",
".X:;       =X+o                      %O*       o@.",
".X:;       =X+o                      %O*       o@.",
".X:;       =X+o                      %O*       o@.",
".X:;       =X+o                      %O*       o@.",
".X:;       =X+o                      %O*       o@.",
".X:;       =X+o                      %O*       o@.",
".X:;       =X+o                      %O*       o@.",
".X:;       =X+o                      %O*       o@.",
".X:;       =X+o                      %O*        @.",
".X<>%%%%%%%;X#%%%%%%%%%%%%%%%%%%%%%%%$O@%%%%%%%%+.",
"...OOOOOOOOO..OOOOOOOOOOOOOOOOOOOOOOOO..OOOOOOOO..",
".O#@********************OO+@********************X.",
".X:;                   &#X$-                   o@.",
".X:;                   &#X$-                   o@.",
".X:;                   &#X$-                   o@.",
".X:;                   &#X$-                   o@.",
".X:;                   &#X$-                   o@.",
".X:;                   &#X$-                   o@.",
".X:;                   &#X$-                   o@.",
".X:; oooooooooooooooooo&#X$%oooooooooooooooooooo@.",
".OX+@@@@@@@@@@@@@@@@@@@@OO#+@@@@@@@@@@@@@@@@@@@@O.",
".................................................."
};
