/* XPM */
static char *_1193311290f43609c131b4e0bf785e5[] = {
/* columns rows colors chars-per-pixel */
"50 50 231 2 ",
"   c #3C1211",
".  c #091D24",
"X  c #172834",
"o  c #093239",
"O  c #0E2D2E",
"+  c #21313E",
"@  c #36373D",
"#  c #3C2E21",
"$  c #4B120F",
"%  c #47282C",
"&  c #47313E",
"*  c #6B302A",
"=  c #554238",
"-  c #153C45",
";  c #0C3B57",
":  c #223A45",
">  c #213949",
",  c #283A47",
"<  c #3C3E4A",
"1  c #523C53",
"2  c #0F404E",
"3  c #1A4149",
"4  c #184756",
"5  c #26474B",
"6  c #36464D",
"7  c #284A5A",
"8  c #394755",
"9  c #2B5559",
"0  c #39545A",
"q  c #174169",
"w  c #204067",
"e  c #394D65",
"r  c #355768",
"t  c #3D5372",
"y  c #3E5A70",
"u  c #3B4F72",
"i  c #42494C",
"p  c #52404C",
"a  c #424658",
"s  c #45565A",
"d  c #515A5F",
"f  c #6F4843",
"g  c #455362",
"h  c #4F586C",
"j  c #49636E",
"k  c #54707B",
"l  c #71707E",
"z  c #726B78",
"x  c #812317",
"c  c #8D2F33",
"v  c #B42C2C",
"b  c #C13A35",
"n  c #A83D47",
"m  c #985B56",
"M  c #B14C4D",
"N  c #B8555A",
"B  c #AC4A47",
"V  c #C2655D",
"C  c #CA615A",
"Z  c #3E7FBD",
"A  c #3E7EB6",
"S  c #3674A5",
"D  c #5B6D89",
"F  c #557B87",
"G  c #53739C",
"H  c #4A758E",
"J  c #606F82",
"K  c #6B7B83",
"L  c #637583",
"P  c #6C7E92",
"I  c #576EAA",
"U  c #4B7BA7",
"Y  c #537BAC",
"T  c #5A7BAC",
"R  c #5473AB",
"E  c #437CB5",
"W  c #487BB7",
"Q  c #5273B4",
"!  c #5B7CB2",
"~  c #5274BA",
"^  c #537BB1",
"/  c #516EAE",
"(  c #4C78C3",
")  c #837C84",
"_  c #7C9091",
"`  c #788188",
"'  c #4D84A4",
"]  c #4983B5",
"[  c #5885B4",
"{  c #5C93B9",
"}  c #5888AC",
"|  c #6685B8",
" . c #6798B7",
".. c #7091B3",
"X. c #76A5BD",
"o. c #538EC0",
"O. c #6999C6",
"+. c #7A9ACA",
"@. c #6AA2C3",
"#. c #76AAC7",
"$. c #6CB7CF",
"%. c #7AB3C2",
"&. c #7CB4CA",
"*. c #7AB8CA",
"=. c #77ACD6",
"-. c #6CBDD6",
";. c #79B2DC",
":. c #78B7D5",
">. c #6FA5D1",
",. c #7AB1E1",
"<. c #73C5D7",
"1. c #858A8B",
"2. c #8D918E",
"3. c #8B8895",
"4. c #8B9695",
"5. c #879597",
"6. c #959899",
"7. c #8799A1",
"8. c #A79EBB",
"9. c #9CA4A3",
"0. c #9CABB9",
"q. c #8EA2A3",
"w. c #A5AAAC",
"e. c #A5A8A9",
"r. c #A6AEB1",
"t. c #A9AEB1",
"y. c #A6B3B3",
"u. c #A5B6BA",
"i. c #B6B8B9",
"p. c #80ADC0",
"a. c #85B7CD",
"s. c #82B6C6",
"d. c #98B0CC",
"f. c #8CB5D9",
"g. c #99BEDC",
"h. c #ABBDC5",
"j. c #BFBDC2",
"k. c #9AB8E7",
"l. c #9EBCF0",
"z. c #A4B8E7",
"x. c #A9BEF3",
"c. c #A6BBF4",
"v. c #87C3CC",
"b. c #8ACADA",
"n. c #94C6D8",
"m. c #B5C6C9",
"M. c #BEC0CC",
"N. c #B9CCD7",
"B. c #A1D4D8",
"V. c #8FC7E6",
"C. c #97C8E5",
"Z. c #94DCED",
"A. c #9BCBF4",
"S. c #99D2FF",
"D. c #8ED6E2",
"F. c #ACC5EE",
"G. c #BCCEEB",
"H. c #BCC6EA",
"J. c #A6D3EB",
"K. c #A4DDED",
"L. c #A9D7E6",
"P. c #B7D2EC",
"I. c #BCD4EC",
"U. c #BCD6EA",
"Y. c #AAC4FB",
"T. c #A9C7F4",
"R. c #BBCFF2",
"E. c #B5C9FA",
"W. c #A8D6F6",
"Q. c #B3D4F2",
"!. c #BCD3F3",
"~. c #BCDBF1",
"^. c #BDD4FC",
"/. c #BDDAFD",
"(. c #B5DAF8",
"). c #A0E2F0",
"_. c #BBE0FF",
"`. c #C1CACA",
"'. c #D6C1C2",
"]. c #D8C2C4",
"[. c #D6CDD4",
"{. c #CAD2D8",
"}. c #D5D7D7",
"|. c #E3D3D3",
" X c #C2CDEA",
".X c #C8CDE5",
"XX c #CAD2E2",
"oX c #C2D2EC",
"OX c #C8D5E8",
"+X c #D4DDEE",
"@X c #DADDE9",
"#X c #C0CEF3",
"$X c #C3D4F4",
"%X c #C9D5F5",
"&X c #C3D9F6",
"*X c #CCDEF4",
"=X c #C3D4FC",
"-X c #C4DAFC",
";X c #CBDAFC",
":X c #C9D7F9",
">X c #D3DEF2",
",X c #D4DEF7",
"<X c #E7DFE7",
"1X c #E1DFF4",
"2X c #DFE1E5",
"3X c #CCE1FB",
"4X c #CAE9FF",
"5X c #D3E4FC",
"6X c #D4EDFF",
"7X c #D8E4F3",
"8X c #CFF5FF",
"9X c #DBF6FD",
"0X c #E6E9EC",
"qX c #F3EAEB",
"wX c #F1F0EE",
"eX c #E4EDFE",
"rX c #EBECFF",
"tX c #E5E8F6",
"yX c #EDF3F5",
"uX c #E5F3FF",
"iX c #EBF4FD",
"pX c #EDFAFE",
"aX c #E5F1F1",
"sX c #F3F4F5",
"dX c #F4F8F6",
"fX c #FDFAF7",
"gX c #F2F4FC",
"hX c #F4FBFD",
"jX c #FFFFFF",
"kX c #FBF5FC",
"lX c #F2EDF4",
/* pixels */
"jXjXjXjXjXjXjXjXjXjXjXjXjXjXjXjXjXjXjXjXhXjXjXjXjXjXjXjXjXjXjXjXjXjXjXjXjXjXjXjXjXjXjXjXjXjXjXjXjXjX",
"jXjXjXjXjXjXjXjXjXjXjXjXjXjXjXjXjXfXjXjXhXjX[.'.'.].'.|.fXjXsXjXjXjXjXjXjXjXjXjXjXjXjXjXjXjXjXjXjXjX",
"jXjXjXjXjXjXjXjXjXjXjXjXjXjXjXjXjXjXjXjXjX<X* $ $ $   f qXjXjXfXjXjXjXjXjXjXjXjXjXjXjXjXjXjXjXjXjXjX",
"jXjXjXjXjXjXjXjXjXjXjXjXjXjXjXjXjXjXjXjXlX% m V B M V * = fXfXjXjXjXjXjXjXjXjXjXjXjXjXjXjXjXjXjXjXjX",
"jXjXjXjXjXjXjXjXjXjXjXjXjXjXjXjXjXjXdXjXkX% N C v b b x = hXjXjXjXjXjXjXjXjXjXjXjXjXjXjXjXjXjXjXjXjX",
"jXjXjXjXjXjXjXjXjXjXjXjXjXjXjXjXjXjXjXjXwX  c M N n c * # hXjXjXjXjXjXjXjXjXjXjXjXjXjXjXjXjXjXjXjXjX",
"jXjXjXjXjXjXjXjXjXjXjXjXjXjXjXjXjXfXjXjXsX[.& z 8.3.1 p }.hXjXkXjXjXjXjXjXjXjXjXjXjXjXjXjXjXjXjXjXjX",
"jXjXjXjXjXjXjXjXjXjXjXjXjXjXjXjXjXjXhXhXjX` P .. .[ G D 5.jXjXjXjXjXjXjXjXjXjXjXjXjXjXjXjXjXjXjXjXjX",
"jXjXjXjXjXjXjXjXjXjXjXjXjXjXjXjXjXjXfXhX_ j n.@.o.] [ | y 7.jXjXjXjXjXfXjXjXjXjXjXjXjXjXjXjXjXjXjXjX",
"jXjXjXjXjXjXjXjXjXjXjXjXjXjXjXjXjXjXwX9.0 n.n.V.S.,.O.O. .e w.wXjXfXjXjXjXjXjXjXjXjXjXjXjXjXjXjXjXjX",
"jXjXjXjXjXjXjXjXjXjXjXjXjXjXjXjXjXjX`.. L.v.L.9X3XR.6Xg.' %.. 0XjXjXjXjXjXjXjXjXjXjXjXjXjXjXjXjXjXjX",
"jXjXjXjXjXjXjXjXjXjXjXjXjXjXjXjXjXhXu.5 %.K.9XiX>X.XoXg.} @.7 m.dXjXjXjXjXjXjXjXjXjXjXjXjXjXjXjXjXjX",
"jXjXjXjXjXjXjXjXjXjXjXjXjXjXjXjXjXr.3 B.a.8XuXiX+X X;X^.T.T p.o `.jXjXjXjXjXjXjXjXjXjXjXjXjXjXjXjXjX",
"jXjXjXjXjXjXjXjXjXjXjXjXjXjXjXjXjXu.2 v.L.6XpXyX+XOXH.=XE.! #.2 m.jXjXjXjXjXjXjXjXjXjXjXjXjXjXjXjXjX",
"jXjXjXjXjXjXjXjXjXjXjXjXjXjXjXjXe.s s.%.~.uXiXhX+X X=X^.Y.^ ]  .0 i.jXjXjXfXjXjXjXjXjXjXjXjXjXjXjXjX",
"jXjXjXjXjXjXjXjXjXjXjXjXjXjXjXjX1.6 K.*.I.iXaXyX7XG.-Xx.| ^ A ,.: e.jXjXjXjXjXjXjXjXjXjXjXjXjXjXjXjX",
"jXjXjXjXjXjXjXjXjXjXjXjXjXjXfXjX6.6 Z.:.$XrXyXpX>XG./.k.I ^ A ;.- t.jXjXjXjXjXjXjXjXjXjXjXjXjXjXjXjX",
"jXjXjXjXjXjXjXjXjXjXjXjXjXjXfXjX2.6 Z.$.!.gXgXiX,XR./.k.I ~ E ;.> y.jXjXjXjXjXjXjXjXjXjXjXjXjXjXjXjX",
"jXjXjXjXjXjXjXjXjXjXjXjXjXjXjXjX2.0 ).:.P.eXiXhX>XR.-Xk.Q ~ E ;.> y.jXjXjXjXjXjXjXjXjXjXjXjXjXjXjXjX",
"jXjXjXjXjXjXjXjXjXjXjXjXjXjXjXjX4.5 b.*.~.uXiXgX>XG.-Xk.Q ( E =.> r.jXjXjXjXjXjXjXjXjXjXjXjXjXjXjXjX",
"jXjXjXjXjXjXjXjXjXjXjXjXjXjXfXjX4.5 b.*.~.uXyXgX>XG.-Xz.~ ( E ;.> r.jXjXjXjXjXjXjXjXjXjXjXjXjXjXjXjX",
"jXjXjXjXjXjXjXjXjXjXjXjXjXjXfXjX5.9 D.:.P.eXyXgX+X X:Xz.Q ( Z ;.> r.jXjXjXjXjXjXjXjXjXjXjXjXjXjXjXjX",
"jXjXjXjXjXjXjXjXjXjXjXjXjXjXfXjX5.5 <.$.U.gXsXyX>X X:Xz.Q ( Z ;.> r.jXjXjXjXjXjXjXjXjXjXjXjXjXjXjXjX",
"jXjXjXjXjXjXjXjXjXjXjXjXjXjXfXjX4.5 <.-.~.rXyXyX+X X:Xz./ W A ;.> t.jXjXjXjXjXjXjXjXjXjXjXjXjXjXjXjX",
"jXjXjXjXjXjXjXjXjXjXjXjXjXjXjXjX4.5 <.-.!.rXiXiX*X$X%XR.k.W S :.: w.jXjXjXjXjXjXjXjXjXjXjXjXjXjXjXjX",
"jXjXjXjXjXjXjXjXjXjXjXjXjXjXjXjX1.: b.$.(.uXiXpX3XG.#X-XY.^ A.C.X e.jXjXjXjXjXjXjXjXjXjXjXjXjXjXjXjX",
"jXjXjXjXjXjXjXjXjXjXjXjXjXjXjXjX[.K H b.C.4X3X5X-X!.!.=XY.Y W.F K }.jXjXjXjXjXjXjXjXjXjXjXjXjXjXjXjX",
"jXjXjXjXjXjXjXjXjXjXjXjXjXjXjXjXjXu.- K.&.J.!.I.P.!.!.^.Y.[ X.o {.jXjXjXjXjXjXjXjXjXjXjXjXjXjXjXjXjX",
"jXjXjXjXjXjXjXjXjXjXjXjXjXjXjXjXhXy.3 C.a.W.-X$X!.P.!.-XY.T X.- m.jXjXjXjXjXjXjXjXjXjXjXjXjXjXjXjXjX",
"jXjXjXjXjXjXjXjXjXjXjXjXjXjXjXjXjXu.3 J.&.J.I.oX$XI.&X^.x.T a.o N.jXjXjXjXjXjXjXjXjXjXjXjXjXjXjXjXjX",
"jXjXjXjXjXjXjXjXjXjXjXjXjXjXjXjXjXq.4 a.p.~.OXXXOXoXoX=XY.! @.4 h.jXjXjXjXjXjXjXjXjXjXjXjXjXjXjXjXjX",
"jXjXjXjXjXjXjXjXjXjXjXjXjXjXjXjX6.s n.*.Q.6XiXeXiX5XG.-Xx.R ' #.5 i.dXjXjXjXjXjXjXjXjXjXjXjXjXjXjXjX",
"jXjXjXjXjXjXjXjXjXjXjXjXjXjXjXjX1.: n.*.Q.-X:X:X=X-X!.^.F.G U f.+ 9.jXdXjXjXfXjXjXjXjXjXjXjXjXjXjXjX",
"jXjXjXjXjXjXjXjXjXjXjXjXjXjXjXjXgX7.9 L.U.oXG.$X!.R.$X!.^.T.[ q 0.hXjXjXfXjXjXjXjXjXjXjXjXjXjXjXjXjX",
"jXjXjXjXjXjXjXjXjXjXjXjXjXjXjXjXj.z 7.9X7X7XtXrXeX7XU.&XF.+.W U L {.jXjXjXjXjXjXjXjXjXjXjXjXjXjXjXjX",
"jXjXjXjXjXjXjXjXjXjXjXjXjXjXjXjX) @ 0XpXiXeXtX1X7X+XG.&XF.G U C.X 6.jXsXjXjXjXjXjXjXjXjXjXjXjXjXjXjX",
"jXjXjXjXjXjXjXjXjXjXjXjXjXjXjXjX[.z 3.7X5XG.H. XU.N.oX$XE.+.Y G K {.jXjXjXjXjXjXjXjXjXjXjXjXjXjXjXjX",
"jXjXjXjXjXjXjXjXjXjXjXjXjXjXjXjXsX6.d @XOX*X,X;X*X*X$XR.^.l.! w 0.sXjXjXjXjXjXjXjXjXjXjXjXjXjXjXjXjX",
"jXjXjXjXjXjXjXjXjXjXjXjXjXjXjXjX1.@ 2XtXhXiXeXiXuX5XH.;Xc./ W k.X e.jXjXjXjXjXjXjXjXjXjXjXjXjXjXjXjX",
"jXjXjXjXjXjXjXjXjXjXjXjXjXjXjXjX9.i `.gXtXXX.X.X.X X:X=XY.| W >.8 i.jXjXjXjXjXjXjXjXjXjXjXjXjXjXjXjX",
"jXjXjXjXjXjXjXjXjXjXjXjXjXjXjXjXjX9.i @X{.{.XXXX.XoXI.P.=XF.U ; h.jXjXjXjXjXjXjXjXjXjXjXjXjXjXjXjXjX",
"jXjXjXjXjXjXjXjXjXjXjXjXjXjXjXjX9.s M.tXeXuXuXeXuX3X~.Q.R.!.}  .8 t.jXjXjXjXjXjXjXjXjXjXjXjXjXjXjXjX",
"jXjXjXjXjXjXjXjXjXjXjXjXjXjXjXjX3.6 XXiXhX>X.X5X;X!.Q./.=XE.Y f., e.jXjXjXjXfXjXjXjXjXjXjXjXjXjXjXjX",
"jXjXjXjXjXjXjXjXjXjXjXjXjXjXjXjX3.< +X*X%XoX!.g.T._.W.A./.T.Y ..X w.fXhXjXjXjXjXjXjXjXjXjXjXjXjXjXjX",
"jXjXjXjXjXjXjXjXjXjXjXjXjXjXjXjX[.l J d.^.(.A.O.=.S.;.{ V.V.X.7 K 2XjXjXjXjXjXjXjXjXjXjXjXjXjXjXjXjX",
"jXjXjXjXjXjXjXjXjXjXjXjXjXjXjXjXjX<Xg e d.T.=.] o.>.{ ' #.%.F k aXjXfXjXfXjXjXjXjXjXjXjXjXjXjXjXjXjX",
"jXjXjXjXjXjXjXjXjXjXjXjXjXjXjXjXjXfX0Xd g D h t u t e y y F j hXjXfXjXjXjXjXjXjXjXjXjXjXjXjXjXjXjXjX",
"jXjXjXjXjXjXjXjXjXjXjXjXjXjXjXjXjXjXjXyXi 6 a 8 a a a 8 8 s jXjXjXjXjXfXjXjXjXjXjXjXjXjXjXjXjXjXjXjX",
"jXjXjXjXjXjXjXjXjXjXjXjXjXjXjXjXjXjXjXjXjXjXjXjXjXjXjXjXjXjXjXjXjXjXjXjXjXjXjXjXjXjXjXjXjXjXjXjXjXjX",
"jXjXjXjXjXjXjXjXjXjXjXjXjXjXjXjXjXjXjXjXjXjXjXjXjXjXjXjXjXjXjXjXjXjXjXjXjXjXjXjXjXjXjXjXjXjXjXjXjXjX"
};
