/* XPM */
static char *ed929363b81f451fea5f6c076b0ca8f1VrrNIeQN99bRvb1v[] = {
/* columns rows colors chars-per-pixel */
"40 40 93 2 ",
"   c #FF9801",
".  c white",
"X  c gray96",
"o  c #FF9A01",
"O  c #FE9701",
"+  c #000001",
"@  c #070402",
"#  c #0A0907",
"$  c #F8F8F7",
"%  c #FBFBFB",
"&  c #EAEAEA",
"*  c #FA9502",
"=  c gray95",
"-  c #4E4E4E",
";  c #C27404",
":  c #3B3938",
">  c #9A9A9B",
",  c #2C2B2A",
"<  c #F6F6F6",
"1  c #A76404",
"2  c gray81",
"3  c #B86E06",
"4  c #202020",
"5  c #878788",
"6  c #2B1902",
"7  c #949391",
"8  c #171818",
"9  c #9A9794",
"0  c #0E0E0E",
"q  c gray85",
"w  c #975B05",
"e  c #F39101",
"r  c #ACADAD",
"t  c #FDEACA",
"y  c #747474",
"u  c #9D5E07",
"i  c #343435",
"p  c #FEFEFE",
"a  c #A7A7A7",
"s  c #5D3805",
"d  c #EDEDEE",
"f  c gray74",
"g  c #8C8B8A",
"h  c #FEA21A",
"j  c #828283",
"k  c gray63",
"l  c #3A2202",
"z  c #FDA828",
"x  c #8D570C",
"c  c #211202",
"v  c #C9CACA",
"b  c #AF6A08",
"n  c #6B6B6C",
"m  c #170D02",
"M  c gray83",
"N  c #DCDDDF",
"B  c #404141",
"V  c #CA7A09",
"C  c #796B5A",
"Z  c #F79A11",
"A  c #FF9B07",
"S  c #FDB850",
"D  c #502F04",
"F  c #FDAD35",
"G  c #FDF3DF",
"H  c #F0A12C",
"J  c #7C7C7C",
"K  c #7D4B06",
"L  c #B2B2B2",
"P  c #E58904",
"I  c #8B6530",
"U  c #684E2C",
"Y  c #FDD79C",
"T  c #DC8202",
"R  c #FEB13E",
"E  c #FDEED2",
"W  c gray89",
"Q  c gray39",
"!  c #5B5B5C",
"~  c #9A876F",
"^  c #854E03",
"/  c #DBCFBF",
"(  c #FCC876",
")  c #C7B7A3",
"_  c #EFEFEF",
"`  c #635849",
"'  c #7F5212",
"]  c #4A3211",
"[  c #EFA02B",
"{  c #754707",
"}  c #ED9411",
"|  c #FCDBA6",
" . c #FCCC81",
/* pixels */
". . . . . . . . . . . . . . . . . . . . . . . & r n i 8 0 0 4 - 7 N . . . . . . ",
". . . . . . . . . . . . . . . . . . . . . & 7 : # @ @ @ @ @ @ @ # , 5 & . . . . ",
". . . . . . . . . . . . . . . . . . . p L : + + # w ; ; ; ; ; ; ; w m B 2 . . . ",
". . . . . . . . . . . . . . . . . . X J 0 + m u 3 e o o o o o o o e u # , 2 . . ",
". . . . . . . . . . . . . . . . . = n + 6 w 1 * o                   * u m B & . ",
". . . . . . . . . . . . . . . . $ n + 6 1   o                         * w c j . ",
". . . . . . . . . . . . . . . . 7 + 6 1                                 O x : q ",
". . . . . . . . . . . . . . . v 8 6 1 o                                   O D 5 ",
". . . . . . . . . . . . . . % ! + K o                                     O K ` ",
". . . . . . . . . . . . . . v 8 c u o                                       * x ",
". . . . . . . . . . . . . . J + x O                                         O K ",
". . . . . . . . . . . . . = : + w o                                         O { ",
". . . . . . . . . . . . . q 8 6 b o                                         O ' ",
". . . . . . . . . . . . . f # x e                                           * I ",
". . . . . . . . . . . . . r @ 1 o                                         O ^ C ",
". . . . . . . . . . . . . a @ 1 o                                         * s > ",
". . . . . . . . . . . . . a @ 1 o                                         * I N ",
". . . . . . . . . . . d 9 , + 1 o                                       * u 9 . ",
". . . . . . . . . $ r : + c s V o                             O O O     e U N . ",
". . . . . . . . . 7 # + D w P                               O h S S A * 3 ) . . ",
". . . . . . . . $ B @ D P                   O         O O O h  .$ Y Z 3 ~ $ . . ",
". . . . . . . . % ! m 3 *                 A z   O O O h F F ( E Y Z 3 C d . . . ",
". . . . . . . . . 2 : 6 ; *             A S t R z z z | G t Y R Z 3 C & . . . . ",
". . . . . . . . . . q , c ; O         A S G G E t t t G ( h Z P V 7 = . . . . . ",
". . . . . . . . . % g 0 + 6 V o     O R E t F H H H H [ } e b C / p . . . . . . ",
". . . . . . . . % g # @ @ # 3 o       h R z T D l l l ] U ~ / X . . . . . . . . ",
". . . . . . . % g # 8 k a , 3 o           T U > > > r v & p . . . . . . . . . . ",
". % v j y > N g @ 4 k = & i l s s b o   o V g . . . . . . . . . . . . . . . . . ",
"$ j 0 + + + 4 # 4 k = < d k 5 i 4 l b A T I & . . . . . . . . . . . . . . . . . ",
"9 # + - y y : 4 > X X X < $ a k M : 6 ^ s > . . . . . . . . . . . . . . . . . . ",
", + - 2 % % L 9 $ X X < = a > = . 2 - i j X . . . . . . . . . . . . . . . . . . ",
"# # f $ X X X X X X < _ r 9 X . . . $ = . . . . . . . . . . . . . . . . . . . . ",
"8 # f $ X X < $ X < d L 7 X . . . . . . . . . . . . . . . . . . . . . . . . . . ",
"n # > d $ $ W q X $ 2 i M . . . . . . . . . . . . . . . . . . . . . . . . . . . ",
"W - 0 9 q q J Q X $ M , 7 . . . . . . . . . . . . . . . . . . . . . . . . . . . ",
". W j - , , 4 Q X X = f 5 p . . . . . . . . . . . . . . . . . . . . . . . . . . ",
". . . & B - r q X X < 2 9 . . . . . . . . . . . . . . . . . . . . . . . . . . . ",
". . . . 5 8 5 < X < M - f . . . . . . . . . . . . . . . . . . . . . . . . . . . ",
". . . . & - 4 5 X 2 - y $ . . . . . . . . . . . . . . . . . . . . . . . . . . . ",
". . . . p W Q : y y 5 = . . . . . . . . . . . . . . . . . . . . . . . . . . . . "
};
