/* XPM */
static char *_469c5d48e2a43b7cce2fcd510412476dvEEJYK246WiBO4N[] = {
/* columns rows colors chars-per-pixel */
"50 50 122 2 ",
"   c #47704C",
".  c gray2",
"X  c #020100",
"o  c black",
"O  c #010100",
"+  c black",
"@  c #030100",
"#  c #010101",
"$  c #020100",
"%  c black",
"&  c black",
"*  c #060300",
"=  c #020100",
"-  c #090705",
";  c #010000",
":  c black",
">  c #030200",
",  c black",
"<  c #020100",
"1  c black",
"2  c #010000",
"3  c #050300",
"4  c black",
"5  c black",
"6  c #17120C",
"7  c black",
"8  c #040200",
"9  c #593500",
"0  c #010101",
"q  c #2D2D2D",
"w  c #533100",
"e  c #42321E",
"r  c #1E1200",
"t  c #331E00",
"y  c #854F01",
"u  c None",
"i  c gray13",
"p  c gray26",
"a  c #513000",
"s  c black",
"d  c #7D4B00",
"f  c gray14",
"g  c #643B00",
"h  c #555555",
"j  c #7B4A01",
"k  c #9B5C01",
"l  c #573400",
"z  c #633B00",
"x  c #222222",
"c  c #533200",
"v  c gray31",
"b  c #FF9801",
"n  c black",
"m  c #F6F6F6",
"M  c #FF9B01",
"N  c #FF9A01",
"B  c #0F0902",
"V  c #FA9501",
"C  c #4D2D00",
"Z  c #F9F9F9",
"A  c #F69200",
"S  c #6F4200",
"D  c #CC7901",
"F  c #FFAB2C",
"G  c #FF9700",
"H  c #844F00",
"J  c #050402",
"K  c #FFF5E7",
"L  c #945800",
"P  c #1E1100",
"I  c #E28701",
"U  c #F29001",
"Y  c #FF9600",
"T  c #EC8C01",
"R  c #301C00",
"E  c #686868",
"W  c #3D2400",
"Q  c #FEFDFC",
"!  c #DA8200",
"~  c #B86E00",
"^  c #393939",
"/  c #EEEEEE",
"(  c #FFDAA2",
")  c #202020",
"_  c #121213",
"`  c gainsboro",
"'  c #5C5D5D",
"]  c gray29",
"[  c #FFC775",
"{  c #FFBA53",
"}  c gray66",
"|  c #603900",
" . c #FFBC59",
".. c #FF9E0D",
"X. c #D5D5D5",
"o. c #E9E9E9",
"O. c #F3F3F3",
"+. c #E4E4E4",
"@. c gray16",
"#. c #FFCB7E",
"$. c #D37D00",
"%. c #FFC369",
"&. c #BCBCBC",
"*. c #FFF2DF",
"=. c gray69",
"-. c #FFFAF1",
";. c #939393",
":. c gray44",
">. c #AE6701",
",. c #9F9F9F",
"<. c #794800",
"1. c #C17301",
"2. c gray80",
"3. c #C3C3C3",
"4. c #B6B6B6",
"5. c #898989",
"6. c gray48",
"7. c #FFE0B2",
"8. c #FFA31A",
"9. c #FFEACB",
"0. c gray79",
"q. c #FFB549",
/* pixels */
"                                                          + - 2 X = > @ @ > # 6 * %                 ",
"                                                      5 : X & J n n n n n n n n $ = 1 %             ",
"                                                    7 3 $ n n R C C C C C C C C C C P = :           ",
"                                                O < @ n J B B L b V V V V V V V V A S J @ 1 +       ",
"                                              , 3 n n n W D $.T b b b b b b b b b G I L n $ 1       ",
"                                            - # n B <.H >.b N b b b b b b b b b b b N I H P @ *     ",
"                                          , # n B C T M N b b b b b b b b b b b b b b b A | P = .   ",
"                                        % 8 n n S A G b b b b b b b b b b b b b b b b b b V <.J <   ",
"                                      + ; n n H ! b b b b b b b b b b b b b b b b b b b b b I L = . ",
"                                      : @ B S ! M b b b b b b b b b b b b b b b b b b b b b M D $ 2 ",
"                                    O 8 n R U b b b b b b b b b b b b b b b b b b b b b b b N $.R X ",
"                                    * $ n R U b b b b b b b b b b b b b b b b b b b b b b b b V I 9 ",
"                                  + s n C 1.V b b b b b b b b b b b b b b b b b b b b b b b b b A a ",
"                                  - > n H M b b b b b b b b b b b b b b b b b b b b b b b b b b A C ",
"                                  2 J n H N b b b b b b b b b b b b b b b b b b b b b b b b b b A C ",
"                                  ; n P L N b b b b b b b b b b b b b b b b b b b b b b b b b b A a ",
"                                + 3 J H ! b b b b b b b b b b b b b b b b b b b b b b b b b b b A 9 ",
"                                O # B D M b b b b b b b b b b b b b b b b b b b b b b b b b b U ~ e ",
"                                % 4 B D N b b b b b b b b b b b b b b b b b b b b b b b b b N D P < ",
"                                % 4 B D N b b b b b b b b b b b b b b b b b b b b b b b b b N D > o ",
"                                O = B D N b b b b b b b b b b b b b b b b b b b b b b b b b M D 3 5 ",
"                              . < @ B D N b b b b b b b b b b b b b b b b b b b b b b b b b T u *   ",
"                          O 1 4 n n B D N b b b b b b b b b b b b b b b b b b b b b b b b N H 8 O   ",
"                        : # J n R S ~ U b b b b b b b b b b b b b b b b b b b G Y G b b b M y *     ",
"                      o > n J | L 1.b b b b b b b b b b b b b b b b b b b b G F %.%.F b V >.d +     ",
"                      < n J W I N b b b b b b b b b b b b b b b b b b b b b ..[ Q K  .A D t .       ",
"                      < n C I V b b b b b b b b b b b b b b b b b b b b b N ( -.K F ..~ r -         ",
"                      o & P S T N b b b b b b b b b G %.[ G Y Y Y b #.( ( ( ( #.{ ..u 9 7           ",
"                        7 = B L I b b b b b b b G ..q.9.9.{ { { {  .*.*.7.7. .8.U ~ c o             ",
"                          o > n H A b b b b b b M F K -.K K K K K K -.#.b b U I D 6 ,               ",
"                        O X J n P S V b b b b Y  .*.Q [ F F F F F F F 8.b V S t z w                 ",
"                      O X n n n n C V b b b b G F [ [ F $.S S S S S S S j k l %                     ",
"                    O X n _ ^ ^ _ W V b b b b b G Y Y ! y 0 & & 4 # X 1 o 5                         ",
"          +       O X n J ' o./ ' W T A U A b b b b b | ; % . . % 5                                 ",
"    % 2 X 3 6 * . X n n 6.X.m m E J R W W | A b b b b 9 -                                           ",
"  o # n n n n $ 0 J _ E 2.Z m m } :.E _ @ P H I M U L g                                             ",
", = n J ) @.@.@.B _ ] +.m m m m m / 3.p 7 # n L ! ~ r .                                             ",
"; n J ) &.+.+.` ^ ' o.O.m m m m m 4.x .   7 & B B @ 2                                               ",
"& n ^ =.o.m m O.&.0.m m m m m Z ;.p .       o ; ; : +                                               ",
"$ n ] O.m m m m Z m m m m m / } h .                                                                 ",
"> n ] O.m m m m m m m m m / 3.q .                                                                   ",
"X n ] O.m m m m m m m m Z } i -                                                                     ",
"o & ) E ` Z Z O.5.,.m m Z ,.$ *                                                                     ",
"  * & B 5.=.=.} ) E m m Z 4.^ 6                                                                     ",
"    - ; # $ B _ B :.m m m m X.q w                                                                   ",
"        O 8 ) ;.&.` m m m Z ` e +                                                                   ",
"          < _ ' X.Z m m Z 2.E f                                                                     ",
"          - 0 J ;.` m m X.6.4 ,                                                                     ",
"            : & J :./ o.' 0 :                                                                       ",
"              o s i ] v 6 o                                                                         "
};
