/* XPM */
static char *_19fdffdd6bb4909bc51b35c57a1edef[] = {
/* columns rows colors chars-per-pixel */
"50 50 34 1 ",
"  c white",
". c #797979",
"X c #D2D2D2",
"o c #020202",
"O c #838383",
"+ c #282828",
"@ c #444444",
"# c #9D9D9D",
"$ c #DADADA",
"% c #222222",
"& c #AEAEAE",
"* c #F8F8F8",
"= c gray11",
"- c gray78",
"; c #E9E9E9",
": c #2D2D2D",
"> c #F3F3F3",
", c gray99",
"< c #7E7E7E",
"1 c gray58",
"2 c gray84",
"3 c #898989",
"4 c gray74",
"5 c #727272",
"6 c #A4A4A4",
"7 c #676767",
"8 c #131313",
"9 c #373737",
"0 c gray71",
"q c #8E8E8E",
"w c gray33",
"e c gray37",
"r c #EFEFEF",
"t c #E1E1E1",
/* pixels */
"                                                  ",
"                                                  ",
"             XO.&                                 ",
"           ,tq:%7X2XXXXXXt                        ",
"           ;e7X$1:+::+++%5>                       ",
"          -O5&  X<5..<<<<.<2                      ",
"          q%4        tXX$#91;                     ",
"          3=4       >5+:%74e7r                    ",
"        r#.q;      XO...56*&5OX                   ",
"        t97*tX$>   #=&      &=#                   ",
"        t97;7=@-   #%&      &=#                   ",
"       -O<OO<9ow0, X3.&*    &=#                   ",
"       3%-1%-0:oe*  r@@>    &%#                   ",
"       O%-1%4 4:w*  r@@>    &=#                   ",
" -OO<...1;18eO<<&, XO.&*    &=#                   ",
"25oo=:+3  1ooo9-   #=&      &=#                   ",
":8oo7X2;  1oowX*   #=&      &=#                   ",
"oooo.     -O<0   >6.3$      &%#                   ",
"o8::q            ;@w*       &%#                 ;X",
"o722;            ;@w*       &=#                 q:",
"o<               ;9w,       0=6                 5o",
":.$*             reeX*     ;q8O$XXXXXXXr  ;XXXt*.o",
"2<@2             ,t1@4    *58o=:+::+:+:6  3+++etOo",
" -........0        #8&  65...<............<<<OO.9o",
"  tw%::::+5X2XXXt  &@#$-e=90          ,3+:322$0@+:",
"  *$XXXXX2q:+::+<* >-e%9#22r           ;2X.+:+@0$X",
"          -<.@ow&,  ,65<$             ,4O<...51r  ",
"             1%4                      ,7o+6       ",
"             1%4                      ,7+0>       ",
"             1%4                     tq.6*        ",
"             1%4                     4%q          ",
"             1%4                     4%q          ",
"             q=42qt       *66*       -%3          ",
"             6@&1@6;,     >@@r    >2$#=q          ",
"             >-w54e5*     >w@r    -@%=81          ",
"              *#<.8w,      0O3X ,&..Oe83          ",
"                &9+7X*   >2$q=# *w9;>6@#          ",
"                r2$1@4   49+=o6 *w@tOw4>          ",
"                   X<.0*&@o@<q$  e85<6*           ",
"                    r@@47%94,2X2X5=8<t,           ",
"                    r@o9#$2,-9%+9#6887;           ",
"                    ;@=.O<<.<.%85tX%@#2>          ",
"                    r7e47+:+e477r>#=O20$          ",
"                    ,;1@#$X$#@1;*O=o9e.-          ",
"                      2<.O3O<<t;3..<3#0t          ",
"                       >58o=5>r6@&                ",
"                        ;3=Or*.w->                ",
"                         0=w3<.6                  ",
"                         &8oo86                   ",
"                                                  "
};
