/* XPM */
static char *deefcb3f35be4152983702bf6a452e8f8yPxv61uPGz1iZ0F[] = {
/* columns rows colors chars-per-pixel */
"50 50 56 1 ",
"  c #D22E28",
". c white",
"X c black",
"o c #D42E28",
"O c #4E110F",
"+ c #110403",
"@ c #D22C26",
"# c #0F0202",
"$ c #B02621",
"% c #CC2C26",
"& c #B22722",
"* c #3B0C0A",
"= c #F6D6D5",
"- c #FCF9F9",
"; c #320A08",
": c #C22A25",
"> c #D2CECE",
", c #251A18",
"< c #250706",
"1 c #131414",
"2 c #D5D5D5",
"3 c #2C2E2E",
"4 c #D63E39",
"5 c #DB544F",
"6 c #FAE8E8",
"7 c #D94D48",
"8 c #D7403B",
"9 c #F9E0DF",
"0 c #D52F28",
"q c #CF2D27",
"w c #5C5B5B",
"e c #721B18",
"r c #181A1A",
"t c #DDDCDC",
"y c #A8241F",
"u c #434242",
"i c #DE635F",
"p c #2B2726",
"a c #E06965",
"s c #E4E2E2",
"d c #E37A77",
"f c #470F0D",
"g c #96241F",
"h c #949595",
"j c #F9F1F0",
"k c #A35957",
"l c gray72",
"z c #C0514D",
"x c #E4807C",
"c c #A06C6B",
"v c #98433F",
"b c #0A0B0B",
"n c #F2C1C0",
"m c #6B3C39",
"M c #EA9995",
"N c #E7908D",
/* pixels */
"..................................................",
"..................................................",
"..................................................",
".......s222>>>>>>>>>>>>>>>>>>>>>>>>>>===========-.",
"......2wppp,,,,,,,,,,,,,,,,,,,,,,,,,,g4888888847n-",
"......h1XXXXXXXXXXXXXXXXXXXXXXXXXXXXX+$o@@@@@@@@56",
"......-hwwb+OOOOOOOOOOOOOOOf#X+OOOOOOO:        @76",
".........tr;%              :<X;%               @76",
".........tr;%              :<X;%               @76",
".........tr;%              :<X;%               @76",
".........tr;%              :<X;%               @76",
".........tr;%              :<X;%               @76",
".........tr;q0oooooooooooo0:<X;%0oooooooooooo  @76",
".-2222222l1;y$$$$$$$$$$$$$$y<X<y$$$$$$$$$$$$$% @76",
"-hr1111111XX+++++++++++++++#XXX++++++++++++++e:@76",
"2pXXXXXXXXXXXXXXXXXXXXXXXXXXXXXXXXXXXXXXXXXXX;y@76",
"=&OOOOOOOOOOOOOOOOOfX+OOOOOOOOOOOOOOOOOOOwwwwcddNj",
"=8@               o&#*%                @i-........",
"=4@               o&#*%                @i-........",
"=4@               o&#*%                @i-........",
"=4@               o&#*%                @i-........",
"=4@               o&#*%                @i-........",
"=4@   oooooooooooo0&+*q0ooooooooooooooo@i-........",
"=4@  :$$$$$$$$$$$$&g#;y$$$$$$$$$$$$$$$$$z>2222222t",
"=4@ oe#++++++++++++#XX+++++++++++++++++++111111113",
"9a@@@e#XXXXXXXXXXXXXXXXXXXXXXXXXXXXXXXXXXXXXXXXXX1",
".9xdddcwwwOOOOOOOOOOOOOOOOOf#X+fOOOOOOOOOOOOOOf#bw",
".........98@               :<X;%              :<ps",
".........98@               :<X;%              :<ps",
".........seeq              :<X;%             0:<ps",
".........tr;%              :<X;%              qgv6",
".........tr;%              :<X;%               o76",
".........tr;%0oooooooooooo0:<X;%0oooooooooo    @76",
"-9999t222l1;y&&&&&&&&&&&&&&y<X<y&&&&&&&&&&$:   @76",
"=5888e1111XX########++######XXX#######+++##e@@@@76",
"=4@@@e*************;X#***************;#X1uukaaaaxj",
"=4@  q%%%%%%%%%%%%q$#*%%%%%%%%%%%%%%q:<Xuj-------.",
"=4@               0&#*%              :<Xu-........",
"=4@               o&#*%              :<Xu-........",
"=4@               o&#*%              :<Xu-........",
"=4@               o&#*%              :<Xu-........",
"=4@               o&#*%              :<Xu-........",
"=4@           oooo0&+*q0oooooooooo   qg*k-........",
"=4@          :&&&&&g#;$&&&&&&&&&&&:   q:i-........",
"=4@@@@@@@@@@oe######XX############eq@@@@a-........",
"9i55555555555v33333333333333333333mz5555M-........",
"..................................................",
"..................................................",
"..................................................",
".................................................."
};
